<svg width="79" height="79" viewBox="0 0 79 79" fill="none" xmlns="http://www.w3.org/2000/svg">
<path d="M79 39.4605C79 17.6762 61.304 0 39.5 0C17.696 0 0 17.6762 0 39.4605C0 51.4586 5.451 62.2717 13.983 69.5299C14.062 69.6089 14.141 69.6089 14.141 69.6879C14.852 70.2409 15.563 70.7939 16.353 71.3469C16.748 71.5839 17.064 71.8949 17.459 72.2109C23.9867 76.6367 31.6924 79.0018 39.579 79C47.4656 79.0018 55.1713 76.6367 61.699 72.2109C62.094 71.9739 62.41 71.6629 62.805 71.4209C63.516 70.8729 64.306 70.3199 65.017 69.7669C65.096 69.6879 65.175 69.6879 65.175 69.6089C73.549 62.2668 79 51.4586 79 39.4605V39.4605ZM39.5 74.0279C32.074 74.0279 25.28 71.6579 19.671 67.7129C19.75 67.0809 19.908 66.4538 20.066 65.8218C20.5367 64.109 21.2271 62.4643 22.12 60.9288C22.989 59.4278 24.016 58.0848 25.28 56.8998C26.465 55.7148 27.887 54.6137 29.309 53.7447C30.81 52.8757 32.39 52.2437 34.128 51.7697C35.8795 51.2976 37.686 51.0602 39.5 51.0636C44.8851 51.0255 50.0723 53.0912 53.957 56.8208C55.774 58.6378 57.196 60.7708 58.223 63.2148C58.776 64.6368 59.171 66.1378 59.408 67.7129C53.5777 71.8118 46.627 74.0166 39.5 74.0279ZM27.413 37.4904C26.7169 35.8967 26.3669 34.1734 26.386 32.4344C26.386 30.7014 26.702 28.9634 27.413 27.3834C28.124 25.8034 29.072 24.3863 30.257 23.2013C31.442 22.0163 32.864 21.0733 34.444 20.3623C36.024 19.6513 37.762 19.3352 39.5 19.3352C41.317 19.3352 42.976 19.6513 44.556 20.3623C46.136 21.0733 47.558 22.0212 48.743 23.2013C49.928 24.3863 50.876 25.8083 51.587 27.3834C52.298 28.9634 52.614 30.7014 52.614 32.4344C52.614 34.2514 52.298 35.9104 51.587 37.4855C50.9008 39.0421 49.9371 40.4609 48.743 41.6725C47.531 42.8649 46.1122 43.8269 44.556 44.5116C41.2915 45.8531 37.6295 45.8531 34.365 44.5116C32.8088 43.8269 31.39 42.8649 30.178 41.6725C28.9822 40.4786 28.0415 39.0541 27.413 37.4855V37.4904ZM64.069 63.6888C64.069 63.5308 63.99 63.4518 63.99 63.2938C63.213 60.8222 62.0678 58.4818 60.593 56.3517C59.1168 54.2058 57.3026 52.3132 55.221 50.7476C53.6312 49.5517 51.908 48.5443 50.086 47.7456C50.9149 47.1988 51.683 46.5648 52.377 45.8546C53.5548 44.6918 54.5892 43.3922 55.458 41.9836C57.2077 39.109 58.1112 35.7993 58.065 32.4344C58.0894 29.9435 57.6056 27.4738 56.643 25.1763C55.6926 22.9625 54.3247 20.9526 52.614 19.2563C50.9058 17.5777 48.8955 16.2374 46.689 15.3062C44.3877 14.3454 41.9147 13.8632 39.421 13.8892C36.9269 13.8648 34.454 14.3486 32.153 15.3112C29.9274 16.2404 27.9122 17.609 26.228 19.3352C24.5495 21.0416 23.2092 23.0503 22.278 25.2553C21.3154 27.5528 20.8316 30.0225 20.856 32.5134C20.856 34.2514 21.093 35.9104 21.567 37.4855C22.041 39.1445 22.673 40.6455 23.542 42.0626C24.332 43.4846 25.438 44.7486 26.623 45.9336C27.334 46.6446 28.124 47.2716 28.993 47.8246C27.1653 48.6445 25.4416 49.6788 23.858 50.9056C21.804 52.4856 19.987 54.3767 18.486 56.4307C16.9962 58.552 15.8498 60.8947 15.089 63.3728C15.01 63.5308 15.01 63.6888 15.01 63.7678C8.769 57.4527 4.898 48.9306 4.898 39.4605C4.898 20.4413 20.461 4.89306 39.5 4.89306C58.539 4.89306 74.102 20.4413 74.102 39.4605C74.0917 48.5453 70.4844 57.2564 64.069 63.6888V63.6888Z" fill="url(#paint0_linear_32_504)"/>
<defs>
<linearGradient id="paint0_linear_32_504" x1="-2.31117" y1="39.3636" x2="79" y2="39.3636" gradientUnits="userSpaceOnUse">
<stop stop-color="#FF1F1F"/>
<stop offset="1" stop-color="#FB7722"/>
</linearGradient>
</defs>
</svg>
