<svg width="42" height="42" viewBox="0 0 42 42" fill="none" xmlns="http://www.w3.org/2000/svg">
<circle cx="21" cy="21" r="20" stroke="#FB7722" stroke-width="2"/>
<path d="M24.8333 17.3333H16.2778C16.1157 17.3333 15.9603 17.2689 15.8457 17.1543C15.7311 17.0397 15.6667 16.8843 15.6667 16.7222V14.2777C15.6667 14.1157 15.7311 13.9602 15.8457 13.8456C15.9603 13.731 16.1157 13.6666 16.2778 13.6666H24.8333C24.9954 13.6666 25.1509 13.731 25.2655 13.8456C25.3801 13.9602 25.4444 14.1157 25.4444 14.2777V16.7222C25.4444 16.8843 25.3801 17.0397 25.2655 17.1543C25.1509 17.2689 24.9954 17.3333 24.8333 17.3333ZM16.8889 16.1111H24.2222V14.8522H16.8889V16.1111Z" fill="#FB7722"/>
<path d="M24.8333 18.6044H16.2778C16.1157 18.6044 15.9603 18.6688 15.8457 18.7834C15.7311 18.898 15.6667 19.0534 15.6667 19.2155V21.611C15.6667 21.7731 15.7311 21.9286 15.8457 22.0432C15.9603 22.1578 16.1157 22.2221 16.2778 22.2221H23.22L25.4444 19.961V19.2155C25.4444 19.0534 25.3801 18.898 25.2655 18.7834C25.1509 18.6688 24.9954 18.6044 24.8333 18.6044ZM24.2222 20.9999H16.8889V19.7777H24.2222V20.9999Z" fill="#FB7722"/>
<path d="M18.7589 29.2561V29.2194L18.9544 28.3699H14.4444V12.4444H26.6667V18.7083L27.8889 17.5533V11.8333C27.8889 11.6712 27.8245 11.5158 27.7099 11.4012C27.5953 11.2866 27.4399 11.2222 27.2778 11.2222H13.8333C13.6713 11.2222 13.5158 11.2866 13.4012 11.4012C13.2866 11.5158 13.2222 11.6712 13.2222 11.8333V28.9444C13.2222 29.1065 13.2866 29.2619 13.4012 29.3765C13.5158 29.4911 13.6713 29.5555 13.8333 29.5555H18.7222C18.7273 29.4549 18.7395 29.3549 18.7589 29.2561V29.2561Z" fill="#FB7722"/>
<path d="M25.4444 21.7151L24.9678 22.1979C25.086 22.1735 25.1944 22.1146 25.2793 22.0287C25.3641 21.9428 25.4216 21.8336 25.4444 21.7151Z" fill="#FB7722"/>
<path d="M15.6667 26.4633C15.6667 26.6254 15.7311 26.7809 15.8457 26.8955C15.9603 27.0101 16.1157 27.0745 16.2778 27.0745H19.2356L19.4189 26.28L19.4983 25.9439V25.9133H16.8889V24.6667H20.7633L21.9856 23.4445H16.2778C16.1157 23.4445 15.9603 23.5088 15.8457 23.6234C15.7311 23.7381 15.6667 23.8935 15.6667 24.0556V26.4633Z" fill="#FB7722"/>
<path d="M32.4661 20.1872L30.4067 18.1278C30.3153 18.0361 30.2067 17.9634 30.0871 17.9138C29.9676 17.8642 29.8394 17.8386 29.71 17.8386C29.5806 17.8386 29.4524 17.8642 29.3329 17.9138C29.2133 17.9634 29.1047 18.0361 29.0133 18.1278L20.635 26.555L19.9444 29.4944C19.9186 29.6212 19.918 29.7519 19.9427 29.8789C19.9675 30.006 20.017 30.1269 20.0885 30.2347C20.1601 30.3426 20.2522 30.4353 20.3596 30.5075C20.467 30.5797 20.5876 30.63 20.7144 30.6555C20.7774 30.6619 20.8409 30.6619 20.9039 30.6555C20.9788 30.6677 21.0551 30.6677 21.13 30.6555L24.0939 30.0016L32.4661 21.6111C32.5576 21.5202 32.6302 21.4121 32.6797 21.2931C32.7292 21.1741 32.7547 21.0464 32.7547 20.9175C32.7547 20.7885 32.7292 20.6609 32.6797 20.5418C32.6302 20.4228 32.5576 20.3147 32.4661 20.2239V20.1872ZM23.4706 28.8894L21.2339 29.3844L21.7778 27.1661L28.06 20.8166L29.7833 22.54L23.4706 28.8894ZM30.4739 21.8494L28.7506 20.1261L29.7222 19.1666L31.4578 20.9022L30.4739 21.8494Z" fill="#FB7722"/>
</svg>
