<svg width="360" height="613" viewBox="0 0 360 613" fill="none" xmlns="http://www.w3.org/2000/svg">
<path d="M236.283 543.281C232.346 596.712 205.887 644.483 167.435 670.347C128.983 696.211 51.6411 720.352 5.57099 698.464C-40.4991 676.576 -110.162 591.689 -108.985 539.02C-107.809 486.35 -37.3765 413.992 12.6305 382.449C62.6375 350.906 153.781 322.956 191.057 349.762C228.332 376.567 240.22 489.85 236.283 543.281C232.346 596.712 205.887 644.483 167.435 670.347L236.283 543.281Z" fill="url(#paint0_linear_11_56)"/>
<path d="M97.902 186.669C100.231 218.684 60.5204 275.561 36.0735 288.675C11.6267 301.79 -25.1042 282.482 -48.7788 265.356C-72.4535 248.231 -107.077 210.446 -105.974 185.924C-104.871 161.403 -63.5068 133.117 -42.1611 118.227C-20.8153 103.337 -1.24344 85.1783 22.1004 96.5853C45.4442 107.992 95.5731 154.654 97.902 186.669C100.231 218.684 60.5204 275.561 36.0735 288.675L97.902 186.669Z" fill="url(#paint1_linear_11_56)"/>
<path d="M208.413 260.975C183.442 236.791 182.276 156.398 197.07 124.809C211.865 93.2203 261.727 77.6513 297.18 71.4423C332.634 65.2334 393.508 66.5677 409.79 87.5553C426.073 108.543 405.358 166.975 394.876 197.368C384.394 227.761 377.976 259.312 346.898 269.914C315.821 280.515 233.385 285.159 208.413 260.975C183.442 236.791 182.276 156.398 197.07 124.809L208.413 260.975Z" fill="url(#paint2_linear_11_56)"/>
<defs>
<linearGradient id="paint0_linear_11_56" x1="-119.122" y1="522.365" x2="237" y2="522.365" gradientUnits="userSpaceOnUse">
<stop stop-color="#FF1F1F"/>
<stop offset="1" stop-color="#FB7722"/>
</linearGradient>
<linearGradient id="paint1_linear_11_56" x1="-111.968" y1="192.655" x2="98" y2="192.655" gradientUnits="userSpaceOnUse">
<stop stop-color="#FF1F1F"/>
<stop offset="1" stop-color="#FB7722"/>
</linearGradient>
<linearGradient id="paint2_linear_11_56" x1="410.928" y1="76.937" x2="204.077" y2="256.165" gradientUnits="userSpaceOnUse">
<stop stop-color="#FF1F1F"/>
<stop offset="1" stop-color="#FB7722"/>
</linearGradient>
</defs>
</svg>
