<svg width="230" height="229" viewBox="0 0 230 229" fill="none" xmlns="http://www.w3.org/2000/svg">
<path d="M203.412 62.0459L168.065 58.9631C176.538 65.75 191.498 82.7838 194.032 119.524C194.108 119.556 194.177 119.608 194.233 119.676C194.289 119.744 194.33 119.826 194.352 119.916C194.567 121.177 194.72 122.45 194.811 123.73C194.811 123.89 194.756 124.043 194.659 124.158C194.561 124.272 194.429 124.339 194.289 124.344C194.317 125.02 194.34 125.7 194.355 126.392C194.437 126.359 194.525 126.347 194.612 126.358C194.699 126.37 194.782 126.403 194.856 126.456C194.93 126.51 194.993 126.582 195.039 126.667C195.085 126.752 195.114 126.848 195.123 126.947C195.269 128.817 195.344 130.691 195.35 132.569C195.322 138.183 194.692 143.772 193.475 149.211C193.365 150.391 193.24 151.579 193.102 152.79C202.282 148.057 212.318 142.571 221.267 137.489C223.265 135.913 224.967 133.892 226.27 131.547C227.573 129.202 228.451 126.581 228.852 123.839C231.618 104.456 231.508 72.34 203.412 62.0459ZM72.4913 135.125C75.0455 140.927 79.01 145.208 84.0373 142.198C87.0797 140.203 89.4344 137.075 90.7097 133.335C86.4814 131.565 79.3005 129.99 72.4913 135.125Z" fill="#FCAFB7"/>
<path d="M222.64 136.696C223.257 136.343 223.8 137.401 223.182 137.754C212.844 143.654 202.408 149.325 191.879 154.763C191.251 155.082 190.723 154.002 191.337 153.702L193.102 152.79C193.24 151.579 193.358 150.391 193.475 149.211C193.274 150.094 193.057 150.973 192.823 151.845C192.618 152.598 191.578 152.278 191.785 151.515C193.904 143.565 194.671 135.222 194.042 126.94C194.028 126.822 194.05 126.702 194.105 126.6C194.16 126.499 194.245 126.423 194.344 126.386C194.331 125.692 194.308 125.01 194.286 124.335C194.067 124.414 193.757 124.128 193.73 123.728C193.645 122.559 193.502 121.396 193.302 120.245C193.275 120.134 193.277 120.017 193.306 119.907C193.335 119.797 193.391 119.699 193.467 119.624C193.543 119.549 193.636 119.5 193.736 119.484C193.835 119.467 193.936 119.483 194.028 119.529C191.497 82.7963 176.532 65.7556 168.061 58.9687L108.839 53.7974C121.338 66.1688 128.675 86.6848 131.927 104.988C136.421 130.327 133.531 162.181 120.614 183.515C119.38 185.539 118.994 185.92 118.843 186.264L189.498 155.052C189.032 163.223 188.202 181.939 190.096 184.659C192.539 188.15 200.831 190.25 210.84 185.63C220.106 181.36 226.017 136.946 226.848 130.386C223.934 136.458 218.801 138.897 222.64 136.696Z" fill="#F76559"/>
<path d="M204.93 173.399C201.578 172.891 198.23 172.4 194.873 171.904C194.029 171.644 193.138 171.669 192.307 171.974C192.01 172.128 191.76 172.381 191.591 172.699C191.422 173.018 191.341 173.388 191.359 173.761L191.132 176.599C190.976 178.61 190.818 179.718 192.608 180.621C196.272 182.415 200.211 183.357 204.195 183.395C204.313 183.393 204.428 183.348 204.522 183.266C204.616 183.184 204.684 183.07 204.717 182.94C206.328 174.6 206.266 175.024 206.24 174.658C206.185 173.831 205.568 173.494 204.93 173.399ZM205.136 175.063C205.053 175.651 205.277 174.282 203.769 182.135C200.299 182.045 196.87 181.247 193.644 179.778C193.096 179.527 192.299 179.291 192.148 178.53C192.08 177.747 192.113 176.958 192.245 176.186C192.469 173.2 192.113 172.698 194.182 173.017C195.059 173.144 203.811 174.433 204.69 174.583C205.337 174.694 205.184 174.694 205.136 175.066V175.063ZM206.611 161.217C205.245 160.047 202.301 159.946 200.763 159.864C199.108 159.779 197.454 159.779 195.8 159.864C192.613 160.019 192.888 160.557 192.589 164.197C192.52 165.016 192.383 165.849 192.383 166.676C192.39 168.34 193.872 168.57 194.998 168.844C197.824 169.427 200.693 169.696 203.564 169.647C205.084 169.668 205.729 169.599 206.283 167.845C206.759 166.311 207.05 164.71 207.148 163.087C207.213 162.749 207.198 162.396 207.104 162.067C207.01 161.738 206.839 161.445 206.611 161.217ZM205.452 166.785C205.331 167.226 205.21 168.012 204.846 168.279C204.346 168.65 198.517 168.293 196.362 167.893C195.422 167.741 194.498 167.483 193.602 167.124C193.326 166.854 193.457 166.538 193.856 161.918C194.064 161.543 193.716 161.33 194.645 161.177C195.836 160.991 202.741 160.855 205.056 161.732C206.677 162.352 206.159 164.125 205.452 166.789V166.785Z" fill="#FCAFB7"/>
<path d="M184.282 24.858C183.849 26.746 182.912 28.4315 181.601 29.6784C182.49 30.3698 183.245 31.264 183.818 32.305C183.734 31.2308 183.703 30.152 183.725 29.0738C183.74 28.4123 183.684 27.3514 184.494 27.3431C184.584 27.3441 184.672 27.3739 184.748 27.4291H184.816C184.671 27.3001 184.737 27.4568 184.282 24.858Z" fill="#FDE992"/>
<path d="M209.796 27.3986C208.362 26.805 207.106 25.751 206.18 24.3625C205.254 22.9739 204.696 21.3094 204.573 19.5676C204.45 17.8258 204.767 16.0802 205.486 14.5392C206.205 12.9981 207.297 11.7267 208.629 10.8765C206.762 10.9658 204.897 10.6279 203.144 9.88267C201.392 9.13741 199.787 7.99968 198.422 6.53589C196.739 4.87176 195.174 2.44628 195.772 0C194.568 2.19482 192.783 3.89186 190.678 4.84402C188.897 6.04067 186.844 6.59721 184.783 6.44159C183.732 6.24776 182.747 5.7304 181.934 4.94484C181.12 4.15927 180.508 3.13505 180.163 1.98171C181.332 7.06287 178.967 11.3577 175.592 12.1191C176.472 12.5078 177.297 13.0428 178.041 13.7069C180.462 14.4461 181.833 16.5096 182.762 19.1653C183.122 20.0036 183.521 20.8197 183.956 21.6102C184.094 21.3266 184.324 21.1165 184.596 21.0254C184.867 20.9343 185.16 20.9695 185.409 21.1234C185.409 20.2914 185.454 19.0155 186.17 18.96C186.738 18.9101 187.28 19.7782 187.59 20.3205C188.019 19.2111 188.658 19.1154 189.135 19.5813C190.025 20.8648 190.518 22.4505 190.537 24.0897C191.094 25.7248 191.027 25.654 191.107 25.5611C191.165 25.4944 191.236 25.4439 191.315 25.4135C191.393 25.3831 191.476 25.3737 191.558 25.3858C191.639 25.398 191.718 25.4315 191.787 25.4838C191.855 25.5361 191.913 25.6057 191.954 25.6873C193.473 30.2676 194.36 35.0908 194.584 39.9836C196.981 38.3133 199.776 37.551 202.573 37.805C203.114 37.786 203.652 37.9168 204.139 38.1865C204.627 38.4562 205.05 38.8567 205.374 39.354C204.791 38.2722 204.443 37.0461 204.358 35.7783C204.274 34.5105 204.455 33.238 204.889 32.0673C205.322 30.8966 205.993 29.8617 206.847 29.0495C207.701 28.2372 208.712 27.6711 209.796 27.3986Z" fill="#FDE992"/>
<path d="M189.348 52.9792C188.224 53.9424 187.032 54.796 185.784 55.5308C189.727 58.5817 191.653 65.2757 192.121 70.7244C192.275 72.6905 192.302 74.6669 192.204 76.6376C192.874 79.5976 194.017 82.3903 195.573 84.8751C197.388 87.4309 199.665 87.51 200.165 84.1442C201.034 78.3125 200.484 72.3193 198.576 66.8219C196.668 61.3245 193.475 56.5352 189.348 52.9792Z" fill="#86F2AA"/>
<path d="M190.816 68.7343C190.146 64.151 188.187 58.4417 184.625 56.1757C179.634 58.6871 174.095 59.4061 168.74 58.2378C168.591 58.9496 168.567 59.6882 168.669 60.4109C169.108 62.9501 171.057 64.0678 173.069 64.5934C177.16 65.6557 179.993 65.3437 182.047 69.981C182.091 69.6745 182.155 69.3722 182.239 69.0769C182.278 68.9211 182.369 68.789 182.492 68.7083C182.615 68.6276 182.761 68.6047 182.898 68.6442C183.036 68.687 183.153 68.7905 183.223 68.9319C183.294 69.0734 183.313 69.2412 183.276 69.3986C183.077 70.052 183.009 70.7482 183.076 71.4358C183.334 71.0093 183.644 70.6277 183.996 70.3028C184.1 70.1932 184.236 70.1324 184.377 70.1324C184.518 70.1324 184.654 70.1932 184.758 70.3028C184.859 70.4187 184.915 70.5758 184.915 70.7396C184.915 70.9034 184.859 71.0605 184.758 71.1764C184.012 71.8661 183.482 72.8154 183.248 73.8807C184.592 80.5372 183.186 87.234 184.731 89.8924C185.007 90.3672 185.416 90.7198 185.89 90.8913C186.365 91.0629 186.876 91.0432 187.34 90.8354C189.761 89.9188 190.124 86.5212 190.469 83.7629C191.252 78.8028 191.369 73.7349 190.816 68.7343Z" fill="#86F2AA"/>
<path d="M186.848 46.7428C185.42 44.0002 184.569 40.9138 184.363 37.7287C184.257 36.8647 183.818 33.101 183.818 32.3106C183.244 31.2698 182.49 30.3757 181.601 29.684C181.601 29.684 181.284 29.9808 181.206 30.0459C181.428 31.414 181.216 32.8276 180.609 34.0329C179.399 36.0188 176.037 36.292 174.979 34.001C175.012 37.6733 174.497 41.3249 173.456 44.7985C172.619 48.0144 171.802 52.1359 168.802 53.5907C167.943 53.9993 166.994 54.0843 166.09 53.8334C166.027 53.972 166.098 53.7876 165.26 57.2157C169.578 58.8526 174.189 59.2022 178.658 58.2317C183.127 57.2612 187.306 55.0024 190.802 51.6686C190.802 51.6686 190.63 50.9752 190.318 49.8214C188.866 49.3285 187.628 48.23 186.848 46.7428Z" fill="#FEE253"/>
<path d="M193.089 35.6749C192.772 32.7063 192.155 29.7901 191.249 26.9854C189.301 28.2824 187.056 28.8705 184.81 28.6717C184.766 30.6948 184.864 32.7187 185.105 34.7236C185.539 38.9921 186.035 43.9388 188.303 46.8884C188.654 47.4385 189.111 47.8876 189.639 48.2005C190.167 48.5134 190.751 48.6814 191.345 48.6913C192.765 48.5332 193.15 46.9606 193.377 45.5849C193.744 42.2852 193.647 38.9393 193.089 35.6749ZM169.389 51.7533C170.414 50.6482 171.155 49.2417 171.53 47.6872C172.027 46.0056 172.476 44.3059 172.876 42.5908C173.828 39.1904 174.103 35.5894 173.683 32.0513C171.465 32.0513 168.477 31.5285 167.059 29.5745C165.215 32.3941 163.958 35.6596 163.386 39.1211C162.771 42.3107 162.175 46.3989 163.167 49.2806C164.245 52.4175 167.174 53.8792 169.389 51.7533Z" fill="#FEE253"/>
<path d="M186.986 93.297C186.642 93.196 186.284 93.1809 185.934 93.2527C185.585 93.3245 185.253 93.4815 184.961 93.713C184.735 93.8411 184.548 94.0451 184.426 94.2977C184.303 94.5504 184.25 94.8398 184.275 95.1275C184.453 96.0109 185.049 96.0775 193.233 102.167C194.312 103.151 195.436 102.337 194.551 100.963C192.552 97.7014 189.781 94.2608 186.986 93.297ZM206.57 96.2772C204.544 93.0515 201.792 89.6095 199.004 88.6097C198.661 88.5114 198.302 88.4977 197.954 88.5694C197.605 88.6411 197.273 88.7966 196.98 89.0257C196.754 89.1545 196.568 89.3588 196.445 89.6116C196.323 89.8644 196.27 90.1538 196.294 90.4416C196.471 91.3181 196.999 91.3375 205.252 97.4795C206.329 98.4613 207.445 97.6709 206.57 96.2772ZM183.712 90.3487C185.029 92.9184 187.885 92.7437 189.574 90.5844C191.148 88.5944 191.397 85.3466 191.819 81.4539C192.259 77.9005 192.36 74.3029 192.121 70.7244C191.665 65.3007 189.726 58.5748 185.784 55.5308C185.364 55.7818 185.284 55.8373 184.625 56.1757C188.179 58.4361 190.146 64.1247 190.816 68.7344C191.462 75.2171 191.066 81.7805 189.646 88.0993C188.535 91.2889 185.816 91.7715 184.731 89.8924C183.166 87.2021 184.61 80.5372 183.248 73.8807C183.476 72.8124 184.007 71.861 184.758 71.1765C184.859 71.0605 184.915 70.9034 184.915 70.7396C184.915 70.5758 184.859 70.4187 184.758 70.3028C184.654 70.1932 184.518 70.1324 184.377 70.1324C184.236 70.1324 184.1 70.1932 183.996 70.3028C183.647 70.6321 183.338 71.0131 183.076 71.4358C183.006 70.7482 183.075 70.0513 183.276 69.3986C183.313 69.2412 183.294 69.0734 183.223 68.932C183.153 68.7905 183.036 68.6871 182.898 68.6442C182.293 68.482 182.142 69.2669 182.051 69.9811C179.976 65.3492 177.136 65.6488 173.073 64.5934C169.253 63.5936 168.189 60.8935 168.734 58.3973C168.744 58.3449 168.747 58.2912 168.744 58.2378C168.657 58.2156 167.728 57.9702 167.7 58.0672C167.413 59.3881 167.528 60.7817 168.027 62.0172C168.526 63.2527 169.378 64.2561 170.442 64.8611C172.392 66.0079 174.644 66.0717 176.731 66.6639C179.25 67.385 180.564 68.5929 181.659 72.0182C183.835 78.9258 181.942 86.9178 183.712 90.3487ZM187.268 26.9812C187.577 27.0589 187.704 26.8286 187.803 26.5416C187.837 25.9664 187.769 25.3894 187.605 24.8448C187.44 24.3002 187.181 23.7991 186.843 23.3714C186.76 23.3124 186.667 23.2743 186.569 23.2595C186.472 23.2447 186.373 23.2536 186.279 23.2855C186.185 23.3174 186.098 23.3717 186.024 23.4448C185.949 23.5179 185.889 23.6082 185.847 23.7098C185.578 24.466 185.44 25.2755 185.443 26.0923C185.443 26.2152 185.485 26.3332 185.561 26.4203C185.637 26.5074 185.74 26.5565 185.847 26.5568C185.954 26.5537 186.055 26.5037 186.131 26.4173C186.206 26.3308 186.25 26.2145 186.253 26.0923C186.283 24.8303 186.402 24.1771 186.507 24.252C186.594 24.3725 186.663 24.5083 186.713 24.6542C187.22 25.8163 186.73 26.8453 187.268 26.9812ZM180.959 21.5478C178.186 23.8124 176.21 22.2148 174.816 22.452C171.952 22.9471 173.357 28.5871 178.289 28.1919C178.803 28.153 178.81 27.2211 178.289 27.2724C177.714 27.3615 177.13 27.3169 176.571 27.1412C176.012 26.9656 175.489 26.6626 175.035 26.2504C174.403 25.5972 173.505 23.8207 174.781 23.4033C175.391 23.3193 176.01 23.3865 176.596 23.6002C177.424 23.7634 178.272 23.7372 179.091 23.523C179.91 23.3087 180.683 22.9108 181.367 22.3521C181.782 22.0096 181.384 21.2011 180.959 21.5478ZM173.546 21.3744C173.622 21.3943 173.701 21.3889 173.775 21.3588C173.849 21.3287 173.913 21.2752 173.961 21.2046C174.009 21.134 174.038 21.0491 174.045 20.9601C174.053 20.8711 174.038 20.7815 174.002 20.7019C173.835 20.2054 174.321 19.5189 174.747 20.3052C174.937 20.6561 175.103 20.9501 175.337 20.7615C175.905 20.29 175.297 19.2901 174.588 19.1806C173.185 18.9115 172.792 21.1193 173.546 21.3744ZM179.158 19.6285C179.235 19.714 179.339 19.7618 179.447 19.7618C179.554 19.7618 179.658 19.714 179.735 19.6285C179.97 19.3289 179.735 18.9101 179.887 18.7396C180.103 18.6577 180.261 18.9823 180.345 19.3373C180.373 19.4551 180.441 19.5554 180.534 19.616C180.627 19.6766 180.736 19.6926 180.839 19.6604C180.942 19.6282 181.03 19.5505 181.083 19.4444C181.135 19.3383 181.149 19.2125 181.121 19.0946C180.738 17.5012 179.4 17.461 179.076 18.5205C179.022 18.7017 179.001 18.8936 179.015 19.0843C179.03 19.275 179.078 19.4603 179.158 19.6285ZM172.57 16.5138C172.164 16.7658 171.823 17.135 171.58 17.5847C171.336 18.0345 171.2 18.5492 171.184 19.0779C171.168 19.6327 172.001 19.8171 172.001 18.9212C172.041 18.5842 172.149 18.2625 172.317 17.9823C172.485 17.702 172.709 17.4712 172.97 17.3084C173.015 17.2784 173.055 17.2383 173.087 17.1906C173.119 17.1429 173.143 17.0884 173.156 17.0302C173.17 16.9721 173.174 16.9114 173.167 16.8517C173.16 16.792 173.143 16.7345 173.117 16.6823C173.091 16.6301 173.056 16.5844 173.014 16.5477C172.972 16.5109 172.925 16.484 172.874 16.4684C172.823 16.4527 172.77 16.4487 172.718 16.4565C172.666 16.4643 172.616 16.4837 172.57 16.5138Z" fill="#1D1D1B"/>
<path d="M194.579 39.9961C194.353 35.1037 193.466 30.2809 191.95 25.6998C191.804 25.3129 191.315 25.3295 191.049 25.6208C189.382 26.9849 187.345 27.6241 185.304 27.4236C185.371 27.3727 185.423 27.2999 185.454 27.2146C185.485 27.1293 185.492 27.0354 185.476 26.9451C185.257 25.71 185.037 24.4753 184.816 23.241C184.769 22.9734 184.453 22.0054 184.816 21.9111C185.22 21.8099 185.496 22.4658 185.646 22.7765C185.697 22.8707 185.775 22.9411 185.866 22.975C185.958 23.0089 186.057 23.004 186.146 22.9612C186.235 22.9185 186.308 22.8406 186.351 22.7419C186.394 22.6431 186.405 22.5299 186.381 22.4229C186.177 21.6465 186.151 20.8233 186.305 20.032C186.867 20.569 187.264 21.298 187.438 22.1122C187.471 22.2234 187.54 22.3159 187.631 22.3708C187.721 22.4258 187.827 22.439 187.926 22.4079C188.025 22.3768 188.11 22.3037 188.163 22.2034C188.217 22.1031 188.235 21.9832 188.214 21.8681C188.165 21.5869 188.169 21.2969 188.226 21.0176C188.283 20.7383 188.391 20.4761 188.543 20.2484C189.287 21.2638 189.721 22.5299 189.779 23.854C189.829 24.4448 190.626 24.4309 190.583 23.854C190.487 22.297 189.984 20.8092 189.14 19.5841C189.035 19.4777 188.909 19.4017 188.773 19.3626C188.637 19.3235 188.495 19.3223 188.358 19.3593C188.222 19.3963 188.095 19.4703 187.989 19.575C187.883 19.6798 187.8 19.8123 187.748 19.9613C187.692 20.0789 187.641 20.1997 187.595 20.3233C187.283 19.7686 186.748 18.9115 186.175 18.9628C185.57 19.0169 185.489 19.9058 185.434 20.4411C185.414 20.6682 185.407 20.8967 185.414 21.1248C185.164 20.971 184.872 20.936 184.6 21.0274C184.328 21.1187 184.099 21.3291 183.961 21.613C183.526 20.8222 183.127 20.0056 182.766 19.1667C181.826 16.5152 180.446 14.417 178.045 13.7097C177.302 13.0434 176.476 12.5078 175.595 12.1205C173.487 11.1997 171.171 11.1085 169.013 11.8611C167.625 12.3403 166.348 13.1676 165.274 14.2831C164.201 15.3986 163.357 16.7741 162.806 18.3097C162.104 20.9224 163.207 24.3865 161.364 26.4334C160.955 26.8411 160.509 27.1968 160.033 27.4943C158.962 28.2737 157.927 29.641 158.318 31.025C158.695 32.3785 160.322 33.1565 160.212 34.5724C160.091 36.0715 157.361 37.536 156.58 40.1792C156.1 41.5587 155.96 43.063 156.176 44.5275C156.391 45.9921 156.954 47.3605 157.803 48.4832C158.808 49.6199 160.135 50.3084 161.544 50.4247C162.14 50.4247 162.277 50.2666 162.251 49.8894C163.582 53.4576 166.558 54.6821 168.787 53.5935C171.787 52.1388 172.603 48.0173 173.442 44.8013C174.481 41.3274 174.997 37.676 174.966 34.0038C176.02 36.2934 179.383 36.023 180.595 34.0357C181.201 32.8302 181.413 31.4168 181.192 30.0487C182.701 28.7706 183.787 26.9435 184.272 24.8664C184.705 27.3168 184.672 27.321 184.815 27.4305H184.747C184.671 27.3744 184.583 27.3441 184.493 27.3431C183.683 27.3598 183.739 28.4137 183.724 29.0738C183.708 30.2568 183.754 31.5576 183.814 32.3064C184.291 37.2864 184.592 43.0512 186.84 46.7442C187.569 48.0755 188.645 49.11 189.916 49.7008C190.546 49.9742 191.236 50.0126 191.887 49.8107C192.538 49.6087 193.116 49.1767 193.54 48.5761C194.812 46.6249 194.756 42.4313 194.579 39.9961ZM169.2 25.1104C169.212 25.0965 169.221 25.0806 169.228 25.0633C169.337 24.9246 169.498 24.7166 169.66 24.7166C169.769 24.7485 169.781 25.1812 169.797 25.3143C169.819 25.6496 169.793 25.9867 169.722 26.3128C169.701 26.4278 169.719 26.5477 169.772 26.648C169.826 26.7483 169.911 26.8214 170.01 26.8526C170.109 26.8837 170.214 26.8704 170.305 26.8155C170.396 26.7605 170.465 26.668 170.498 26.5568C170.936 25.1409 171.643 25.0147 171.596 24.8345C171.941 25.5937 172.01 26.4786 171.788 27.296C171.767 27.411 171.785 27.5309 171.839 27.6312C171.892 27.7315 171.977 27.8047 172.076 27.8358C172.175 27.8669 172.281 27.8536 172.371 27.7987C172.462 27.7437 172.531 27.6513 172.564 27.5401C172.639 27.2336 172.935 26.5887 173.29 26.8314C173.6 27.0367 173.677 27.6968 173.744 28.0504C173.929 29.0627 173.95 30.1053 173.806 31.1263C172.004 31.1263 169.142 30.7324 167.904 29.2389C168.07 29.0475 168.306 26.3086 169.2 25.1104ZM172.876 42.5838C172.474 44.2982 172.025 45.9978 171.53 47.6803C171.149 49.2319 170.409 50.6367 169.389 51.7463C167.292 53.7599 164.333 52.6144 163.18 49.2681C162.683 47.6474 162.517 45.9176 162.696 44.2119C163.059 39.2084 164.352 33.5226 167.076 29.562C168.458 31.4827 171.601 32.0929 173.7 32.0388C174.114 35.5825 173.833 39.1874 172.876 42.5908V42.5838ZM177.039 34.6057C176.691 34.6012 176.355 34.4638 176.082 34.2154C175.81 33.967 175.618 33.6218 175.536 33.2342C175.387 32.7275 175.313 32.1961 175.316 31.6616C177.075 31.9949 178.88 31.6258 180.43 30.6159C180.647 33.7154 179.158 35.0106 177.039 34.6126V34.6057ZM183.533 24.4586C183.316 25.5338 182.912 26.5479 182.346 27.4406C181.78 28.3333 181.062 29.0864 180.237 29.6549C179.411 30.2235 178.494 30.5959 177.541 30.7501C176.587 30.9042 175.616 30.8369 174.685 30.5522C174.822 28.7493 174.507 25.5362 172.948 25.8815C172.616 25.9397 172.729 26.1672 172.674 25.5667C172.659 25.2581 172.585 24.9571 172.457 24.6852C172.329 24.4134 172.149 24.1774 171.932 23.9941C171.438 23.7167 170.896 24.3089 170.58 24.6778C170.569 24.689 170.56 24.7027 170.553 24.718C170.394 24.0676 170.06 23.6848 169.481 23.829C168.772 17.3195 174.545 12.7417 178.708 14.9661C178.632 14.9326 178.55 14.9244 178.471 14.9426C178.392 14.9607 178.319 15.0045 178.261 15.0688C178.019 15.3461 178.091 15.5874 178.543 15.8634C178.571 15.88 179.214 16.5956 179.284 16.6414C179.353 16.6862 179.432 16.7067 179.511 16.7004C179.59 16.6941 179.666 16.6612 179.729 16.6059C179.792 16.5507 179.839 16.4753 179.865 16.3894C179.891 16.3035 179.894 16.2107 179.875 16.1227C179.809 15.9155 179.707 15.7264 179.573 15.568C180.665 16.5795 181.494 17.9149 181.969 19.4288C182.661 21.4022 183.897 22.3521 183.533 24.4656V24.4586ZM193.377 45.5848C193.15 46.9605 192.771 48.5331 191.345 48.6912C190.751 48.6826 190.166 48.5152 189.638 48.2022C189.11 47.8893 188.653 47.4394 188.303 46.8884C186.818 44.6507 185.899 41.9872 185.648 39.1904C185.069 35.724 184.788 32.2009 184.81 28.6717C184.81 28.5205 188.635 29.0669 191.249 26.9854C192.155 29.7901 192.772 32.7063 193.089 35.6749C193.646 38.9394 193.743 42.2851 193.377 45.5848Z" fill="#1D1D1B"/>
<path d="M197.574 213.221C191.969 216.601 186.329 220.724 183.015 226.944C187.771 226.62 192.539 224.309 197.491 222.209C198.944 221.598 200.76 220.904 201.439 219.316C203.341 214.877 197.696 213.324 197.574 213.221ZM172.69 203.262C171.917 203.194 171.141 203.355 170.438 203.729C169.735 204.104 169.128 204.679 168.675 205.4C168.735 205.485 168.773 205.587 168.785 205.696C168.797 205.805 168.781 205.915 168.74 206.014C168.699 206.113 168.634 206.196 168.554 206.255C168.473 206.313 168.379 206.344 168.284 206.344C168.607 213.533 169.443 220.818 172.89 226.845C174.168 222.693 174.888 218.342 175.025 213.941C175.275 211.676 175.418 209.397 175.451 207.114C175.517 206.187 175.266 205.267 174.751 204.548C174.236 203.829 173.497 203.368 172.69 203.262Z" fill="#F76559"/>
<path d="M198.806 212.349C198.76 212.146 198.67 211.959 198.546 211.806C198.092 210.183 198.026 191.668 198.024 191.525C197.503 161.227 197.605 177.578 197.605 154.061C197.605 153.898 197.548 153.741 197.447 153.625C197.346 153.509 197.209 153.444 197.066 153.444C196.923 153.444 196.786 153.509 196.685 153.625C196.584 153.741 196.528 153.898 196.528 154.061C196.528 162.192 196.473 170.323 196.623 178.447C196.7 182.468 197.261 206.521 197.27 208.511C197.22 209.643 197.284 210.778 197.461 211.893C191.177 215.665 184.986 220.146 181.603 227.286C181.558 227.38 181.534 227.486 181.535 227.594C181.536 227.702 181.561 227.807 181.608 227.9C181.654 227.993 181.722 228.071 181.803 228.126C181.883 228.181 181.975 228.211 182.069 228.213C186.634 228.174 190.939 226.295 195.16 224.508C197.105 223.825 198.992 222.938 200.796 221.858C204.109 219.348 203.209 213.904 198.806 212.349ZM201.439 219.316C200.758 220.906 198.918 221.609 197.491 222.209C192.563 224.302 187.727 226.623 183.015 226.944C186.322 220.735 191.959 216.602 197.574 213.221C197.695 213.325 203.333 214.891 201.439 219.316ZM167.814 204.697C167.695 204.657 167.567 204.666 167.454 204.724C167.341 204.782 167.249 204.884 167.195 205.012C160.148 204.041 158.155 199.696 159.344 192.138C160.996 181.688 167.264 172.913 174.575 166.314C175.117 165.826 174.356 164.953 173.813 165.44C168.771 169.818 164.568 175.338 161.466 181.656C158.803 187.326 156.183 197.011 159.489 202.055C161.305 204.829 164.301 205.845 167.205 206.238C167.539 214.103 168.514 222.095 172.545 228.437C172.759 228.769 173.287 228.902 173.472 228.437C175.693 222.928 175.903 216.525 176.423 209.651C176.55 208.51 176.558 207.356 176.445 206.214C175.869 201.736 170.986 200.238 167.814 204.697ZM175.3 210.351C174.845 216.367 174.634 221.928 172.89 226.854C169.445 220.831 168.6 213.51 168.284 206.353C168.379 206.351 168.471 206.319 168.551 206.26C168.631 206.202 168.695 206.118 168.736 206.02C168.776 205.922 168.792 205.812 168.782 205.704C168.771 205.596 168.734 205.494 168.675 205.408C170.626 202.651 173.375 202.739 174.675 204.449C175.776 205.897 175.445 208.423 175.3 210.351Z" fill="#1D1D1B"/>
<path d="M50.0276 143.579C48.7709 145.06 47.1391 146.049 45.3636 146.408C43.5882 146.766 41.7593 146.475 40.1364 145.576C42.2201 156.879 46.2171 167.604 51.9015 177.146C54.7495 175.126 57.5982 173.102 60.4478 171.074C55.4263 162.786 51.885 153.441 50.0276 143.579Z" fill="#FEE253"/>
<path d="M128.495 94.3426C121.353 67.1076 106 42.4036 81.1986 43.5587C60.1064 44.5489 46.8197 63.3079 41.0564 86.3769C41.9979 87.2816 42.9222 88.2096 43.8285 89.1602C44.3369 89.6955 43.5755 90.5678 43.0671 90.0339C42.3016 89.232 41.5259 88.4429 40.7405 87.6666C38.641 96.8638 37.532 106.321 37.4382 115.827C37.6904 115.862 37.9261 115.989 38.1112 116.189C38.5954 116.853 37.851 117.628 37.4249 117.628C37.4078 126.469 38.2129 135.287 39.8265 143.932C41.3833 145.104 43.2681 145.56 45.1053 145.21C46.9425 144.86 48.5972 143.73 49.7395 142.045C46.4868 125.002 46.8948 106.374 50.1305 92.078C54.6349 72.2845 64.8154 55.1023 82.736 55.0149C99.3843 55.0759 110.158 71.3013 116.283 88.9564C124.636 113.086 124.623 139.371 118.658 159.417C124.372 159.989 128.288 153.698 126.977 147.463C126.943 147.307 126.963 147.141 127.035 147.002C127.106 146.863 127.222 146.761 127.358 146.719C127.494 146.677 127.639 146.697 127.762 146.776C127.884 146.855 127.975 146.987 128.014 147.141C129.495 154.171 125.018 161.504 118.301 160.604C114.791 172.115 109.161 183.159 99.2451 187.719C85.6303 193.988 70.1235 185.662 61.093 172.048L52.5261 178.135C67.9446 202.038 95.8629 209.753 114.045 190.372C128.759 174.686 139.191 135.135 128.495 94.3426Z" fill="#FEE253"/>
<path d="M70.5315 103.552C72.5046 102.551 73.628 99.1228 73.7999 96.6183C73.8556 95.8237 72.777 95.832 72.7225 96.6183C72.6319 97.9716 72.2853 99.2862 71.7069 100.471C70.0327 103.899 67.7654 102.839 68.0681 99.7635C68.2691 98.244 68.6351 96.7593 69.1575 95.3438C69.1936 95.1865 69.1742 95.0192 69.1035 94.878C69.0329 94.7369 68.9166 94.6332 68.7798 94.5894C68.6425 94.55 68.4972 94.573 68.3744 94.6537C68.2516 94.7343 68.1609 94.8664 68.1213 95.0221C67.6489 96.3588 67.2968 97.7472 67.0706 99.1658C66.5343 102.735 68.5547 104.555 70.5315 103.552ZM99.3758 100.202C99.3107 101.808 99.0247 103.392 98.5285 104.896C98.1581 106.029 97.5818 107.735 96.3398 107.808C95.1293 107.896 95.0688 106.079 95.0761 105.111C95.0861 103.435 95.2938 101.769 95.6934 100.157C95.7224 100.003 95.699 99.8427 95.6279 99.708C95.5569 99.5733 95.4436 99.4748 95.3112 99.4326C95.1788 99.3904 95.0373 99.4078 94.9158 99.4812C94.7942 99.5546 94.7017 99.6784 94.6572 99.8273C94.1524 101.892 93.4745 106.358 94.6233 108.108C94.9808 108.605 95.4889 108.93 96.0463 109.018C96.6036 109.105 97.1692 108.948 97.6303 108.579C99.4775 107.244 100.343 102.724 100.445 100.188C100.481 99.4154 99.4061 99.4154 99.3758 100.202ZM222.64 136.696C216.13 140.4 202.825 147.741 191.337 153.702C190.72 154.03 191.263 155.077 191.879 154.763C202.409 149.328 212.846 143.657 223.182 137.754C223.807 137.417 223.258 136.347 222.64 136.696ZM193.73 123.723C193.733 123.884 193.79 124.039 193.89 124.153C193.99 124.267 194.124 124.333 194.265 124.336H194.286C194.425 124.33 194.557 124.262 194.655 124.148C194.753 124.034 194.808 123.881 194.811 123.722C194.716 122.442 194.563 121.169 194.351 119.908C194.307 119.754 194.215 119.624 194.091 119.544C193.968 119.464 193.823 119.439 193.685 119.475C193.55 119.522 193.436 119.626 193.365 119.766C193.295 119.907 193.274 120.072 193.308 120.23C193.508 121.384 193.649 122.55 193.73 123.723ZM192.823 151.844C194.992 143.796 195.773 135.341 195.123 126.951C195.069 126.175 193.986 126.154 194.056 126.951C194.681 135.233 193.914 143.575 191.798 151.526C191.585 152.277 192.62 152.598 192.823 151.844Z" fill="#1D1D1B"/>
<path d="M125.766 82.0363C118.796 63.1289 106.633 45.9675 88.9423 42.8348C68.7266 39.2541 48.5968 52.5575 40.1497 85.5282C36.8535 82.401 34.3864 80.3125 20.3867 68.07C19.8384 67.5902 19.2973 68.6594 19.8444 69.1323C32.9265 80.5857 35.8052 83.0001 39.8411 86.8248C37.6171 96.1803 36.452 105.824 36.3741 115.52C36.2301 115.473 24.7252 111.871 21.527 110.873C21.3927 110.84 21.2524 110.867 21.1348 110.948C21.0172 111.029 20.9312 111.159 20.8944 111.311C20.8576 111.463 20.8728 111.625 20.9368 111.764C21.0009 111.903 21.1089 112.009 21.2389 112.06C23.9566 112.909 36.0654 116.692 36.3535 116.786C36.3405 121.923 36.5858 127.056 37.0883 132.16C37.0213 132.231 36.9756 132.325 36.9576 132.428C35.9553 137.084 35.4892 141.88 38.8593 144.712C40.914 156.522 45.0176 167.74 50.927 177.7C51.0336 177.86 51.9693 177.042 37.9877 187.011C37.397 187.427 37.9393 188.498 38.5301 188.072L51.6207 178.781C69.074 205.906 101.088 211.824 118.911 186.114C133.352 165.344 140.578 122.224 125.766 82.0363ZM37.4733 135.682C37.673 137.236 37.9103 139.327 38.4889 142.643C37.1779 140.748 37.1767 138.075 37.4733 135.682ZM40.1364 145.576C41.76 146.471 43.5881 146.76 45.3628 146.402C47.1374 146.044 48.7691 145.056 50.0276 143.579C51.8838 153.442 55.4252 162.786 60.4478 171.074C57.5998 173.095 54.7511 175.119 51.9015 177.146C46.2108 167.606 42.2133 156.878 40.1364 145.572V145.576ZM112.364 117.392C111.637 117.456 111.773 117.889 111.986 116.88C112.184 115.976 112.37 114.924 111.464 114.451C110.668 114.035 109.974 114.781 109.426 115.372C109.335 115.527 109.637 114.459 109.246 113.782C109.11 113.552 108.918 113.374 108.693 113.269C108.468 113.164 108.222 113.138 107.984 113.193C107.434 113.332 107.084 113.907 106.748 114.38C105.504 116.113 104.6 118.132 104.099 120.301C103.598 122.469 103.51 124.736 103.843 126.947C103.964 127.725 104.995 127.395 104.879 126.616C104.577 124.467 104.704 122.268 105.249 120.183C105.794 118.098 106.743 116.182 108.026 114.577C108.51 114.011 108.356 115.018 108.328 115.34C108.231 116.243 108.042 117.129 107.765 117.982C107.733 118.125 107.748 118.276 107.805 118.408C107.863 118.54 107.96 118.644 108.078 118.701C108.197 118.758 108.33 118.765 108.452 118.719C108.575 118.674 108.679 118.58 108.747 118.454C109.151 117.524 109.713 116.695 110.401 116.017C110.497 115.922 110.854 115.49 110.998 115.552C111.301 115.677 110.867 116.929 110.8 117.195C110.597 118.003 110.347 118.793 110.051 119.563C109.777 120.271 110.614 120.876 110.978 120.184C111.179 119.739 111.441 119.333 111.753 118.981C112.062 118.674 112.66 118.36 112.975 118.832C113.316 119.336 112.854 120.476 112.35 121.969C110.164 128.468 107.445 134.07 109.055 145.239C110.004 151.827 111.796 158.804 117.238 160.355C114.817 168.247 110.973 176.874 105.322 182.185C92.0691 194.643 73.1753 187.745 62.289 171.851C62.1861 171.703 62.0965 171.553 61.9936 171.403C62.4779 171.065 68.0886 167.079 70.4165 165.419C71.006 165.003 70.4637 163.933 69.8742 164.357C67.0318 166.377 64.1875 168.395 61.3412 170.412C56.0996 162.207 52.7973 152.195 50.8738 142.354C54.3371 136.788 56.6843 125.243 50.5845 106.754C50.3355 106.209 50.2059 105.602 50.2068 104.986C50.3036 104.318 50.9416 104.372 51.3326 104.655C51.7456 105.022 52.0794 105.493 52.3082 106.032C52.6714 106.725 53.5091 106.118 53.2343 105.41C53.0697 104.978 51.8482 101.55 52.2877 101.389C52.4523 101.333 52.7816 101.751 52.8845 101.853C53.5726 102.531 54.1353 103.36 54.5392 104.291C54.8128 104.904 55.7268 104.48 55.521 103.818C55.2441 102.966 55.0552 102.079 54.9581 101.177C54.923 100.862 54.7717 99.8397 55.2595 100.414C56.545 102.017 57.4961 103.934 58.0413 106.019C58.5865 108.105 58.7115 110.305 58.4069 112.454C58.2858 113.232 59.3269 113.563 59.4431 112.784C59.7589 110.667 59.6903 108.498 59.2414 106.413C58.7926 104.328 57.9732 102.371 56.8344 100.665C56.2582 99.8009 55.3818 98.385 54.3153 99.2781C53.7451 99.7662 53.8141 100.526 53.8904 101.251C53.3408 100.655 52.6266 99.8647 51.8168 100.293C50.7987 100.826 51.1268 102.117 51.4464 103.376C51.2287 103.269 50.9937 103.217 50.757 103.222C50.5203 103.227 50.2873 103.29 50.0735 103.407C49.8598 103.524 49.6702 103.691 49.5174 103.899C49.3646 104.106 49.2522 104.348 49.1875 104.609C51.1425 85.2467 58.9262 62.706 75.1738 57.4528C81.8326 55.2734 88.9681 56.1125 95.1015 59.7965C102.895 64.5268 108.573 73.3204 112.521 82.3428C123.153 106.625 124.285 136.205 117.58 159.242C115.974 158.795 114.551 157.732 113.544 156.232C111.365 153.05 110.198 146.81 109.824 142.799C109.235 137.582 109.851 132.278 111.611 127.419C113.39 122.023 114.018 120.762 114.13 119.586C114.17 119.302 114.154 119.012 114.082 118.736C114.01 118.461 113.884 118.207 113.713 117.996C113.543 117.785 113.333 117.62 113.099 117.516C112.865 117.411 112.614 117.369 112.364 117.392ZM49.8557 107.979C50.8108 110.826 57.5958 126.759 50.5627 140.646C48.5119 128.988 48.0306 117.04 49.1355 105.216C49.2371 106.177 49.4807 107.111 49.8557 107.979ZM132.668 135.566C131.144 162.489 121.639 193.105 98.957 200.001C83.9041 204.578 64.9413 197.463 52.5395 178.155L61.1063 172.07C74.8216 192.682 98.9957 196.993 111.546 176.206C114.402 171.381 116.679 166.139 118.314 160.619C124.859 161.531 129.548 154.379 128.028 147.157C127.876 146.398 126.829 146.71 126.992 147.478C128.31 153.755 124.36 160.001 118.672 159.432C123.513 141.777 124.171 122.964 120.579 104.921C116.617 84.8417 106.741 60.7894 89.2268 55.9121C82.2735 54.0157 74.9512 55.21 68.7363 59.2543C61.6765 63.9596 56.7642 72.1 53.5151 80.7702C46.5123 99.5028 46.12 123.02 49.7528 142.066C48.61 143.75 46.9555 144.879 45.1188 145.228C43.282 145.578 41.3977 145.122 39.8411 143.952C38.2266 135.306 37.4211 126.488 37.4382 117.647H37.4939C38.0289 117.491 38.5712 116.815 38.1245 116.208C37.9412 116.005 37.7046 115.878 37.4515 115.846C37.5456 106.34 38.6546 96.8832 40.7538 87.686C41.5431 88.4571 42.3186 89.2461 43.0804 90.0532C43.5888 90.5885 44.3503 89.7232 43.8431 89.181C42.9348 88.2323 42.0101 87.3044 41.0697 86.3977C44.9107 70.9934 52.4571 56.1728 64.8844 48.5677C69.7346 45.6614 75.0694 43.9715 80.534 43.6107C85.9986 43.2499 91.4676 44.2263 96.5771 46.4751C122.607 58.2045 134.52 102.859 132.674 135.566H132.668Z" fill="#1D1D1B"/>
<path d="M93.6852 114.042C74.8349 114.254 68.4312 109.639 68.4312 109.639C66.8115 120.317 69.7918 140.926 78.7546 144.082C82.5302 145.411 86.3191 142.644 88.6942 139.457C95.1693 130.815 93.7057 113.903 93.6852 114.042ZM84.0373 142.203C79.0221 145.228 75.06 140.912 72.4913 135.131C79.3078 129.999 86.4813 131.576 90.7097 133.346C89.4286 137.081 87.0753 140.205 84.0373 142.203ZM12.8319 79.0173C13.4081 79.4569 13.9504 78.3877 13.3742 77.955L6.91239 73.025C6.33618 72.584 5.79387 73.6532 6.37008 74.0859C8.52562 75.7297 10.6795 77.3735 12.8319 79.0173ZM17.674 82.1542C23.6677 86.2864 29.455 90.7996 35.0086 95.6725C35.557 96.1523 36.0981 95.0817 35.551 94.6102C29.9992 89.7333 24.2122 85.2182 18.2175 81.0863C17.6279 80.6703 17.0844 81.7464 17.674 82.1542ZM24.1624 120.231C24.8487 120.3 24.8487 119.067 24.1624 118.997L0.514775 116.66C-0.171592 116.589 -0.171592 117.825 0.514775 117.896C6.65818 118.5 22.4131 120.055 24.1624 120.231ZM44.3503 172.698C44.9688 172.345 44.4265 171.284 43.8079 171.636C43.0211 172.085 20.5138 184.83 19.7185 185.037C19.6474 184.918 19.5425 184.833 19.422 184.793C19.3015 184.754 19.1729 184.765 19.0583 184.822C18.9437 184.88 18.8502 184.982 18.794 185.11C18.7377 185.238 18.7222 185.385 18.7501 185.525C18.8028 185.684 18.885 185.829 18.9909 185.95C19.0968 186.07 19.2241 186.163 19.364 186.221C19.504 186.28 19.6534 186.304 19.8021 186.291C19.9507 186.278 20.0952 186.229 20.2257 186.146C21.4266 185.64 43.7087 173.066 44.3503 172.698ZM55.7183 202.055C48.3208 212.746 48.5762 212.676 47.7216 213.449C47.1793 213.936 47.9407 214.809 48.483 214.323C49.1464 213.725 48.5871 214.402 56.4797 202.926C56.9058 202.306 56.1492 201.432 55.7183 202.055Z" fill="#1D1D1B"/>
<path d="M177.039 34.6126C176.691 34.6081 176.355 34.4707 176.082 34.2224C175.81 33.974 175.618 33.6287 175.536 33.2411C175.387 32.7344 175.313 32.203 175.316 31.6685C177.075 32.0018 178.88 31.6327 180.43 30.6229C180.647 33.7154 179.158 35.0106 177.039 34.6126Z" fill="#FEE253"/>
</svg>
