<svg width="42" height="42" viewBox="0 0 42 42" fill="none" xmlns="http://www.w3.org/2000/svg">
<circle cx="21" cy="21" r="20" stroke="#FFBA08" stroke-width="2"/>
<path fill-rule="evenodd" clip-rule="evenodd" d="M31.6898 13.9028L30.4634 13.6134L27.149 16.91L25.2717 14.9975L28.5043 11.6049L28.2213 10.3593C27.5382 10.1307 26.8237 10.0097 26.1034 10.0007C25.3177 9.98859 24.5379 10.1385 23.8126 10.4411C23.1123 10.7582 22.4793 11.2066 21.9479 11.7622C21.3563 12.3228 20.8878 13.0003 20.5721 13.7518C19.9643 15.2474 19.9643 16.9212 20.5721 18.4167C17.2942 21.6425 14.0587 24.9111 10.8663 28.2216C10.5362 28.6541 10.3789 29.1936 10.4198 29.7362C10.452 30.3198 10.7144 30.8668 11.1493 31.2571C11.3443 31.4694 11.577 31.6456 11.8364 31.7729C12.1037 31.8909 12.3915 31.9585 12.6823 31.9727C13.1792 31.9633 13.6556 31.7745 14.0251 31.4427C16.459 29.1511 21.1224 24.4437 23.7717 21.685C24.4903 21.9901 25.2623 22.1474 26.0421 22.1458C26.8271 22.1452 27.6041 21.9872 28.327 21.6811C29.0499 21.3751 29.7042 20.9272 30.2512 20.3639C31.3746 19.2177 32.0021 17.6753 31.998 16.0701C32.0161 15.3356 31.912 14.6031 31.6898 13.9028ZM13.0738 30.3275C13.0133 30.3813 12.9404 30.4191 12.8616 30.4376C12.7841 30.4511 12.7048 30.4511 12.6273 30.4376C12.546 30.4253 12.4686 30.3946 12.4009 30.348C12.3282 30.3054 12.2668 30.2461 12.2217 30.175C12.0015 29.9501 11.7956 29.5223 12.0015 29.2816C14.1556 26.9901 18.591 22.5107 21.3645 19.7725C21.5218 19.9801 21.6947 20.1783 21.8803 20.3639C22.0658 20.5573 22.2655 20.7366 22.4777 20.9002C19.7954 23.6526 15.4197 28.0784 13.0738 30.3275ZM30.5546 16.0701C30.5578 17.2733 30.0892 18.4293 29.2465 19.2912C28.4055 20.1164 27.2744 20.5787 26.0964 20.5787C24.9183 20.5787 23.7873 20.1164 22.9463 19.2912C22.3299 18.6478 21.9089 17.8425 21.7321 16.969C21.5554 16.0956 21.6302 15.1899 21.9479 14.3573C22.1593 13.7907 22.4873 13.2748 22.9106 12.8429C23.334 12.4111 23.8432 12.0729 24.4054 11.8503C24.9391 11.6268 25.5122 11.5124 26.0909 11.5137H26.4902L23.6334 14.4596V15.5542L26.6129 18.5205H27.6506L30.5546 15.6643V16.0701ZM13.5565 18.9405H15.9637L17.0722 20.0682L18.1382 19.0081L17.0926 17.9417V17.8741L17.1822 15.2806L16.8363 14.5933L12.3396 11.6332L11.4103 11.737L10.1038 13.0724L10 14.0145L12.8899 18.6039L13.5565 18.9405ZM12.0707 13.2281L15.709 15.625L15.6477 17.3913H13.9559L11.61 13.6763L12.0707 13.2281ZM23.2419 24.1748L24.3016 23.1163L29.1851 28.1256C29.5965 28.5581 29.8259 29.1322 29.8259 29.7291C29.8259 30.326 29.5965 30.9001 29.1851 31.3326C28.8758 31.6502 28.4781 31.8673 28.0437 31.9557C27.6093 32.0441 27.1584 31.9996 26.7497 31.828C26.4888 31.7122 26.2548 31.5435 26.0626 31.3326L21.1224 26.2949L22.19 25.2285L27.1144 30.2521C27.1806 30.3251 27.263 30.3817 27.355 30.4172C27.536 30.4907 27.7385 30.4907 27.9194 30.4172C28.0114 30.3816 28.0938 30.3251 28.16 30.2521C28.2288 30.1839 28.2824 30.1018 28.3172 30.0114C28.3533 29.9191 28.3725 29.8211 28.3738 29.722C28.3723 29.6231 28.3536 29.5252 28.3188 29.4326C28.284 29.3422 28.2304 29.2602 28.1616 29.192L23.2419 24.1748Z" fill="#FFBA08"/>
</svg>
