<svg width="40" height="40" viewBox="0 0 40 40" fill="none" xmlns="http://www.w3.org/2000/svg">
<path d="M10 22.8572C11.578 22.8572 12.8572 21.578 12.8572 20C12.8572 18.4221 11.578 17.1429 10 17.1429C8.42207 17.1429 7.14288 18.4221 7.14288 20C7.14288 21.578 8.42207 22.8572 10 22.8572Z" fill="#FF1F1F"/>
<path d="M30 22.8572C31.5779 22.8572 32.8571 21.578 32.8571 20C32.8571 18.4221 31.5779 17.1429 30 17.1429C28.422 17.1429 27.1428 18.4221 27.1428 20C27.1428 21.578 28.422 22.8572 30 22.8572Z" fill="#FF1F1F"/>
<path d="M20 22.8572C21.578 22.8572 22.8572 21.578 22.8572 20C22.8572 18.4221 21.578 17.1429 20 17.1429C18.4221 17.1429 17.1429 18.4221 17.1429 20C17.1429 21.578 18.4221 22.8572 20 22.8572Z" fill="#FF1F1F"/>
<path d="M20 40C16.0444 40 12.1776 38.827 8.8886 36.6294C5.59962 34.4318 3.03617 31.3082 1.52242 27.6537C0.00866566 23.9991 -0.387401 19.9778 0.384303 16.0982C1.15601 12.2186 3.06082 8.65492 5.85787 5.85787C8.65492 3.06082 12.2186 1.15601 16.0982 0.384303C19.9778 -0.387401 23.9991 0.00866566 27.6537 1.52242C31.3082 3.03617 34.4318 5.59962 36.6294 8.8886C38.827 12.1776 40 16.0444 40 20C39.9939 25.3025 37.8849 30.386 34.1354 34.1354C30.386 37.8849 25.3025 39.9939 20 40ZM20 2.85715C16.6095 2.85715 13.2951 3.86256 10.4759 5.74624C7.65682 7.62992 5.45957 10.3073 4.16207 13.4397C2.86457 16.5722 2.52509 20.019 3.18655 23.3444C3.84801 26.6698 5.4807 29.7244 7.87818 32.1218C10.2756 34.5193 13.3302 36.152 16.6556 36.8135C19.981 37.4749 23.4278 37.1354 26.5603 35.8379C29.6927 34.5404 32.3701 32.3432 34.2538 29.5241C36.1374 26.7049 37.1428 23.3905 37.1428 20C37.1376 15.4551 35.3297 11.0978 32.116 7.88402C28.9022 4.67026 24.5449 2.86244 20 2.85715Z" fill="#FF1F1F"/>
</svg>
