<svg width="222" height="201" viewBox="0 0 222 201" fill="none" xmlns="http://www.w3.org/2000/svg">
<path d="M147.02 95.7406C145.83 96.4492 144.591 97.0721 143.312 97.6046C131.925 102.452 116.353 101.578 104.803 98.6892C101.149 116.541 111.953 190.517 111.953 190.517C121.898 193.042 128.469 190.349 128.469 190.349L126.454 118.543C127.468 134.218 133.871 180.957 133.871 180.957C141.122 186.016 148.701 180.454 148.701 180.454C151.322 151.388 147.228 98.4142 147.02 95.7406Z" fill="#59679C"/>
<path d="M37.9542 178.234C37.6709 178.437 37.3215 178.526 36.9757 178.483C37.077 181.395 37.7539 185.33 39.2765 187.708C39.7867 188.505 40.9074 189.954 39.8508 190.787L39.8217 190.808C39.7966 190.02 39.5547 189.254 39.1227 188.595C39.0895 188.538 39.0456 188.489 38.9934 188.45C38.9413 188.411 38.8819 188.382 38.8187 188.366C38.7556 188.35 38.6898 188.346 38.6252 188.356C38.5607 188.365 38.4985 188.387 38.4424 188.42C38.3862 188.453 38.3372 188.497 38.298 188.549C38.2588 188.601 38.2303 188.661 38.2141 188.724C38.1979 188.787 38.1942 188.853 38.2034 188.917C38.2126 188.982 38.2344 189.044 38.2676 189.1C38.6955 189.702 38.8991 190.435 38.8431 191.171C38.6214 191.191 38.3984 191.191 38.1768 191.171C38.1646 190.264 38.0286 189.363 37.7725 188.492C37.7335 188.37 37.6487 188.268 37.5358 188.207C37.4229 188.146 37.2908 188.131 37.1674 188.166C37.0439 188.2 36.9386 188.281 36.8738 188.392C36.8089 188.503 36.7895 188.634 36.8196 188.759C37.0341 189.466 37.159 190.198 37.1912 190.936C33.4819 189.581 32.7107 184.645 32.0117 180.669C31.4932 177.666 31.1481 174.635 30.9784 171.592C30.6603 171.721 30.3356 171.833 30.0057 171.927C30.2491 175.994 31.2312 185.309 33.3561 188.836C36.4235 193.899 41.7986 192.503 41.2208 189.41C40.8212 187.232 38.1465 186.22 37.9542 178.234ZM24.38 198.348L24.6946 196.102C24.7298 195.975 24.7134 195.84 24.6491 195.726C24.5847 195.612 24.4777 195.528 24.3515 195.493C24.2253 195.458 24.0902 195.474 23.9761 195.538C23.8619 195.603 23.778 195.71 23.7428 195.836L23.3653 198.503C22.625 198.598 21.8777 198.629 21.1321 198.593C20.8583 196.311 22.2807 195.711 21.4897 195.235C21.376 195.17 21.2415 195.152 21.1148 195.185C20.9881 195.218 20.879 195.298 20.8106 195.41C20.2894 196.34 20.0601 197.405 20.1523 198.468C19.4508 198.352 18.7688 198.139 18.1265 197.834C18.1404 197.779 18.1428 197.815 18.1579 197.771C18.8091 195.686 20.4051 193.558 22.8178 193.642C25.0825 193.724 26.8183 195.598 28.2198 197.35C26.9587 197.752 25.6769 198.085 24.38 198.348Z" fill="#FE744F"/>
<path d="M36.2406 132.748C38.397 128.402 43.1407 118.564 44.428 113.665C44.6696 112.293 44.633 110.887 44.3207 109.53C44.0083 108.173 43.4264 106.892 42.6095 105.764C38.27 107.346 35.6639 106.373 34.2846 105.373C25.8572 113.256 24.1738 109.83 19.7435 113.577C19.8346 113.534 19.928 113.495 20.023 113.461C20.6323 113.25 20.891 114.21 20.2898 114.413C19.1582 114.863 18.1436 115.564 17.3227 116.463C16.5326 117.733 15.9365 119.114 15.5542 120.56C15.0593 122.391 14.8263 124.283 14.8622 126.179C14.8692 126.398 15.0801 127.561 15.2723 128.641C18.1929 127.771 19.7574 124.267 20.7721 121.411C21.2172 120.287 21.4315 119.085 21.4024 117.876C21.3604 117.239 22.353 117.247 22.3891 117.876C22.5394 120.422 20.1244 128.425 15.4354 129.633L15.7092 131.182C13.4294 133.255 11.6288 135.799 10.433 138.638C5.19066 133.879 2.11863 120.644 8.09493 109.555C8.14975 109.451 8.16627 109.331 8.14157 109.217C8.11688 109.102 8.05255 109 7.95989 108.928C7.86724 108.856 7.7522 108.819 7.63499 108.824C7.51778 108.828 7.40591 108.874 7.31906 108.953C2.97256 112.331 0.992108 117.806 0.305941 123.096C-0.873008 132.123 1.23093 141.645 8.79507 146.363C8.67162 150.072 9.03627 153.78 9.87966 157.393C9.44513 167.179 14.8564 177.062 14.204 186.644C14.1621 187.426 14.1609 187.445 13.4689 187.778C12.5975 188.203 11.8614 188.862 11.3426 189.682C10.8239 190.501 10.5428 191.448 10.5309 192.418C10.7639 194.03 14.4417 194.329 15.9748 193.783C20.0929 192.315 20.5182 186.923 20.835 182.563C20.5926 181.536 20.3274 180.513 20.0394 179.497C19.9726 180.728 19.895 181.958 19.8064 183.188C19.5279 186.775 19.1447 191.557 15.729 192.802C15.729 191.019 16.8136 190.575 16.0855 190.179C15.9713 190.116 15.8377 190.1 15.7117 190.132C15.5856 190.164 15.4765 190.243 15.4063 190.352C14.8656 191.134 14.6431 192.092 14.7842 193.032C14.2748 193.104 13.7569 193.09 13.2522 192.99C13.22 192.956 13.1844 192.926 13.1462 192.899C13.1722 191.989 13.4669 191.108 13.9932 190.365C14.0599 190.252 14.0789 190.117 14.046 189.99C14.0132 189.862 13.9311 189.753 13.8178 189.687C13.7046 189.62 13.5695 189.601 13.4422 189.634C13.315 189.667 13.206 189.749 13.1392 189.862C12.5535 190.699 12.2119 191.683 12.1525 192.703C11.4931 192.483 11.485 192.322 11.5642 191.877C11.6755 191.244 11.9228 190.642 12.289 190.112C12.6552 189.583 13.1317 189.14 13.6856 188.812C14.6852 188.23 15.1034 188.244 15.2176 186.797C15.849 178.293 11.6562 169.459 10.9782 160.855C12.1244 164.108 14.1426 166.984 16.8124 169.167C16.3464 167.825 15.8897 166.581 15.5309 165.782C15.2711 165.209 16.1251 164.704 16.3848 165.286C17.3681 167.375 19.486 174.14 20.143 176.376C22.2202 183.533 23.3525 187.195 21.9616 192.745C24.6841 192.413 26.668 194.114 28.4353 196.16C29.1718 185.858 29.2325 175.518 28.617 165.208C28.5763 164.575 29.5676 164.579 29.6107 165.208C29.7086 166.762 29.8624 170.604 29.8764 170.967C30.621 170.752 31.3322 170.434 31.9896 170.024C32.0254 170.002 32.0649 169.988 32.1061 169.981C30.8922 165.527 30.4262 157.225 34.7518 155.607C35.3779 155.346 36.0693 155.282 36.7325 155.426C37.3956 155.57 37.9986 155.914 38.4599 156.412C38.8594 156.902 38.1605 157.61 37.7609 157.111C37.3101 156.649 36.6995 156.376 36.0542 156.349C35.4089 156.321 34.7775 156.542 34.2893 156.964C33.1558 158.083 32.4927 159.592 32.4358 161.183C31.8661 165.747 32.755 170.375 34.9754 174.403C35.5442 175.434 36.1997 176.414 36.9349 177.334C37.3345 177.744 37.7154 177.32 38.1873 176.734C37.1385 175.959 36.36 174.874 35.9622 173.633C35.9268 173.507 35.943 173.371 36.0072 173.257C36.0715 173.143 36.1784 173.059 36.3047 173.024C36.4309 172.988 36.566 173.004 36.6802 173.069C36.7945 173.133 36.8786 173.24 36.9139 173.366C36.9629 173.506 37.0118 173.654 37.0677 173.794C37.4363 174.641 38.0174 175.378 38.7546 175.935C39.0485 175.49 39.315 175.027 39.5526 174.55C38.6591 173.864 37.9406 172.976 37.4557 171.96C37.1481 171.303 38.0568 170.921 38.3096 171.457C38.6847 172.248 39.6703 173.585 39.9685 173.585C40.5879 172.111 40.6229 170.457 40.0664 168.958C39.5107 167.56 37.2879 164.58 38.2676 159.651C38.3841 159.029 39.3452 159.294 39.2194 159.916C39.09 160.579 39.0233 161.251 39.0202 161.926C39.6326 160.516 40.0391 159.025 40.2271 157.499C40.5288 153.02 39.499 141.795 36.4491 136.596L36.434 136.624C36.434 136.624 28.9327 140.22 15.3632 136.261C15.3632 136.261 15.1966 133.222 16.287 132.048C16.2823 132.033 26.5772 136.798 36.2406 132.748ZM39.3662 114.949C39.3662 114.949 38.5787 119.557 36.5563 119.557C34.5339 119.557 33.9701 114.054 33.9701 114.054C34.7443 114.599 35.6317 114.963 36.5661 115.117C37.5004 115.272 38.4576 115.213 39.3662 114.946V114.949ZM28.2431 112.361C28.4879 112.361 28.7273 112.434 28.9308 112.571C29.1342 112.707 29.2928 112.9 29.3863 113.127C29.4799 113.353 29.5042 113.602 29.4563 113.842C29.4084 114.082 29.2904 114.303 29.1172 114.476C28.9439 114.649 28.7233 114.767 28.4831 114.814C28.2429 114.862 27.994 114.837 27.7677 114.744C27.5415 114.65 27.3482 114.491 27.2122 114.287C27.0761 114.084 27.0035 113.844 27.0035 113.6C27.0032 113.437 27.0351 113.276 27.0973 113.125C27.1595 112.975 27.2508 112.838 27.366 112.723C27.4812 112.608 27.6179 112.517 27.7685 112.455C27.919 112.392 28.0803 112.361 28.2431 112.361ZM8.85449 145.224C3.84512 141.827 0.0880915 134.856 1.17151 124.16C1.6375 119.542 3.03546 114.868 6.11914 111.43C1.36373 122.709 4.6606 134.934 10.0474 139.59C9.38416 141.402 8.98248 143.299 8.85449 145.224ZM16.16 138.008C13.4873 144.79 13.0042 152.239 14.7784 159.31C14.9321 159.925 13.9804 160.19 13.8266 159.575C12.0019 152.331 12.4837 144.698 15.2047 137.741C15.4366 137.159 16.3872 137.421 16.1565 138.008H16.16Z" fill="#FE744F"/>
<path d="M93.239 88.0402C81.9142 90.6313 70.156 90.6814 58.8095 88.187C54.8906 98.4667 46.7731 129.206 61.0556 184.111C61.0556 184.111 62.8263 187.652 74.4527 185.125L76.1116 110.01L77.1263 109.954L83.3007 185.518C87.8313 187.294 92.8416 187.422 97.4574 185.881C97.4574 185.881 106.997 115.997 93.239 88.0402ZM60.5873 101.934C59.3806 102.871 57.9401 103.459 56.4225 103.634C56.2958 103.628 56.1763 103.574 56.0888 103.482C56.0013 103.39 55.9525 103.268 55.9525 103.141C55.9525 103.014 56.0013 102.892 56.0888 102.8C56.1763 102.709 56.2958 102.654 56.4225 102.648C57.1182 102.619 57.7961 102.419 58.396 102.065C60.0891 101.315 61.5494 100.123 62.6236 98.6146C63.8854 96.7432 64.3812 94.459 64.0088 92.2329C63.8923 91.6097 64.8522 91.3475 64.9641 91.9708C65.3086 93.8784 65.0761 95.8455 64.2965 97.6203C63.5168 99.3951 62.2253 100.897 60.5873 101.934ZM94.7302 103.044C92.4167 101.768 90.5843 99.7703 89.5127 97.3554C88.4412 94.9406 88.1894 92.2414 88.7958 89.67C88.9426 89.0479 89.8944 89.3135 89.7476 89.9356C89.1761 92.2961 89.4035 94.7796 90.3943 96.997C91.3851 99.2145 93.0833 101.041 95.223 102.19C95.7868 102.49 95.2882 103.347 94.7302 103.042V103.044ZM36.1777 132.748C26.5154 136.803 16.2194 132.034 16.2194 132.034C15.1208 133.218 15.2956 136.248 15.2956 136.248C28.8651 140.209 36.3664 136.611 36.3664 136.611C36.7138 136.016 36.8898 135.336 36.875 134.647C36.8602 133.958 36.6551 133.286 36.2825 132.706C36.2406 132.718 36.2126 132.732 36.1777 132.748Z" fill="#FFD35C"/>
<path d="M193.086 107.498C178.81 115.14 161.749 109.925 158.152 108.68C157.943 117.554 157.466 149.765 160.917 174.664C161.617 174.984 162.347 175.234 163.096 175.409C166.635 176.298 170.38 175.791 173.554 173.992L175.911 124.44L177.766 125.28L177.095 184.945C177.095 184.945 184.177 187.638 190.579 184.608C192.519 163.679 194.221 129.137 193.086 107.498Z" fill="#B2EACD"/>
<path d="M204.185 92.3238C203.996 91.8753 203.12 89.797 203.057 89.6444C202.808 89.0619 201.536 89.5919 211.96 83.9279C212.498 85.1662 213.008 86.4256 213.474 87.6919C210.527 89.518 207.417 91.0685 204.185 92.3238Z" fill="url(#paint0_linear_9_166)"/>
<path d="M197.23 60.1881C196.835 61.3787 195.791 63.2508 194.558 62.9945C193.351 62.7359 193.218 60.8183 193.522 59.5229C192.955 60.957 191.703 61.2028 191.059 60.6634C190.198 59.926 190.575 57.7929 190.996 56.7165C190.672 57.3416 190.222 57.8923 189.673 58.3335C189.393 58.5469 189.055 58.6694 188.703 58.6844C188.352 58.6994 188.004 58.6062 187.708 58.4173C186.638 57.5821 187.097 55.075 187.609 53.8134C186.992 54.0649 186.313 54.1186 185.664 53.9672C185.447 53.9237 185.247 53.8216 185.084 53.6721C184.921 53.5225 184.803 53.3312 184.741 53.1189C184.68 52.9066 184.678 52.6815 184.735 52.4681C184.793 52.2547 184.908 52.0612 185.068 51.9087C183.097 51.1524 181.039 50.6494 178.942 50.4117C178.997 50.468 179.035 50.5379 179.054 50.6141C179.072 50.6903 179.07 50.77 179.047 50.845C177.611 56.0513 170.56 58.5944 168.722 51.4788C168.712 51.4305 168.709 51.3811 168.714 51.332C166.903 52.1056 165.21 53.1316 163.687 54.3796C159.834 56.7922 154.636 60.4036 148.753 65.0087C148.763 66.3624 148.63 72.7255 148.488 78.9662L154.726 75.1393C154.634 75.1126 154.551 75.0594 154.489 74.9864C154.426 74.9134 154.386 74.8238 154.374 74.7284C154.361 74.633 154.377 74.5361 154.419 74.4495C154.461 74.363 154.527 74.2905 154.61 74.2411C156.019 73.5583 157.385 72.7871 158.697 71.9322C158.818 71.8933 158.948 71.8918 159.07 71.928C159.191 71.9642 159.299 72.0363 159.379 72.1349C159.653 72.5193 159.306 75.8849 159.262 76.3124C159.26 76.4376 159.211 76.5574 159.125 76.648C159.039 76.7387 158.921 76.7935 158.796 76.8017C158.464 86.7249 157.467 98.5272 157.467 108.442C168.079 112.59 183.226 113.15 193.876 107.098L193.317 73.1647C193.317 73.1647 198.775 82.241 202.035 88.6798C202.653 87.7909 211.636 82.9633 212.008 82.7769C209.426 77.0033 204.453 67.4517 197.23 60.1881Z" fill="url(#paint1_linear_9_166)"/>
<path d="M88.8098 48.3963C86.273 47.0042 83.5138 46.0629 80.655 45.6143C80.6727 46.2205 80.5524 46.8228 80.3034 47.3758C80.0543 47.9287 79.6829 48.4179 79.2173 48.8064C78.7516 49.1949 78.2038 49.4725 77.6152 49.6184C77.0265 49.7643 76.4124 49.7747 75.8192 49.6486C73.0035 49.6195 71.1663 48.4976 70.7877 45.7297C68.8369 46.0462 66.9258 46.5719 65.0875 47.2977C64.9885 48.0794 64.1626 48.7656 62.6667 48.3963C62.5328 48.4662 62.4069 48.5256 62.2741 48.5955C62.6924 49.7978 63.0675 52.0683 62.0575 52.8581C61.7609 53.0482 61.4129 53.1422 61.061 53.1272C60.709 53.1122 60.3703 52.9889 60.091 52.7743C59.5403 52.3354 59.0895 51.7841 58.7687 51.1573C59.1765 52.2057 59.5737 54.3889 58.7058 55.1042C58.0931 55.6249 56.8302 55.4537 56.2419 53.9637C56.9677 56.9087 54.9954 58.8892 53.298 56.1748C50.9722 59.0701 48.8303 62.1085 46.8849 65.272C57.4279 69.4718 56.7475 69.1164 56.8885 69.4042L57.69 69.7432L59.8102 66.0631C60.6805 73.4042 59.4102 80.8404 56.1522 87.4764C65.479 90.482 81.0907 91.2043 95.5993 87.4764C95.5993 87.4764 91.0559 79.3658 92.1777 65.3769L94.5356 67.609C94.7582 67.4272 94.7279 67.4855 94.7046 67.3643C94.5985 66.9974 94.3166 67.4307 100.624 61.3321C100.69 61.2681 100.773 61.2235 100.863 61.2029C100.953 61.1824 101.047 61.1868 101.135 61.2156C101.321 60.957 101.48 60.6803 101.611 60.3897C98.3559 55.4326 93.9681 51.3215 88.8098 48.3963Z" fill="url(#paint2_linear_9_166)"/>
<path d="M219.765 107.567C218.962 107.527 218.6 106.567 218.331 105.936C218.282 105.853 218.209 105.787 218.122 105.744C218.035 105.702 217.938 105.686 217.842 105.699C217.746 105.711 217.656 105.751 217.582 105.814C217.509 105.877 217.455 105.96 217.428 106.053C217.157 107.629 218.451 109.032 217.596 109.93C216.781 110.784 215.742 107.313 215.623 106.837C215.463 106.215 214.56 106.48 214.671 107.104C214.844 108.048 214.84 109.016 214.657 109.958C214.452 111.006 214.298 111.674 213.628 110.54C212.912 108.802 212.532 106.945 212.509 105.065C212.503 104.938 212.448 104.819 212.356 104.731C212.264 104.644 212.142 104.595 212.015 104.595C211.889 104.595 211.767 104.644 211.675 104.731C211.583 104.819 211.528 104.938 211.522 105.065C211.406 107.138 209.86 108.716 209.409 108.544C208.958 108.371 208.961 107.466 208.961 107.096C208.979 105.032 210.095 102.733 209.73 100.251C209.288 97.1246 208.035 95.058 206.89 92.2597C208.889 91.409 210.835 90.4364 212.715 89.3473C215.965 95.2653 216.588 99.9485 219.812 105.764C220.064 106.217 220.886 107.624 219.765 107.567ZM183.729 30.3311C183.285 27.702 182.674 25.1039 181.899 22.5526C176.336 28.3681 172.463 25.8413 169.345 26.934C166.228 28.0268 168.422 33.5883 168.422 33.5883C164.948 32.5026 161.763 32.6855 161.763 36.2934C161.763 37.9022 164.653 38.2039 166.261 38.2389C166.06 37.5632 165.226 37.7519 165.381 37.0739C165.604 36.1 167.736 37.3267 167.23 38.9787L168.678 44.9678C168.616 46.9584 168.83 48.9481 169.314 50.88C169.323 50.9161 169.588 50.9312 169.664 51.2295C170.317 53.712 171.834 55.4455 174.185 54.7244C175.125 54.3993 175.972 53.8512 176.653 53.127C177.335 52.4029 177.831 51.5244 178.099 50.5666C178.425 48.5641 178.375 46.5183 177.95 44.5344C178.584 45.1052 182.063 43.1562 182.344 42.9465C185.581 40.5479 184.282 33.6909 183.729 30.3311ZM166.55 36.2584C166.135 35.8209 165.613 35.4996 165.035 35.3265C164.912 35.2869 164.808 35.2021 164.744 35.0891C164.681 34.9761 164.662 34.8432 164.693 34.7172C164.73 34.593 164.814 34.4881 164.927 34.4243C165.04 34.3605 165.174 34.3427 165.3 34.3747C166.036 34.6024 166.704 35.0086 167.245 35.5571C167.702 36.0441 166.995 36.7233 166.55 36.2584ZM173.562 32.2312C173.312 32.8929 172.397 32.5282 172.611 31.9655C172.798 31.3947 173.138 30.8863 173.595 30.496C174.051 30.1056 174.607 29.8483 175.199 29.7521C175.324 29.723 175.454 29.7429 175.564 29.8078C175.673 29.8726 175.754 29.9773 175.788 30.1C175.822 30.2228 175.808 30.354 175.748 30.4663C175.687 30.5786 175.586 30.6633 175.465 30.7027C174.407 31.0464 173.96 31.2374 173.562 32.2312ZM175.14 32.7309C175.678 32.8998 176.211 33.0746 176.749 33.2493C176.875 33.2861 176.981 33.37 177.046 33.4836C177.111 33.5972 177.13 33.7316 177.098 33.8586C177.063 33.9845 176.978 34.0912 176.864 34.1553C176.75 34.2195 176.615 34.2359 176.489 34.2011C175.951 34.0322 175.418 33.8586 174.88 33.6839C174.762 33.6424 174.664 33.5578 174.606 33.4469C174.548 33.336 174.533 33.2072 174.566 33.0864C174.599 32.9656 174.677 32.8618 174.783 32.7958C174.89 32.7298 175.017 32.7066 175.14 32.7309ZM180.636 40.2054C180.206 40.4241 179.734 40.5495 179.252 40.5734C178.77 40.5974 178.288 40.5192 177.839 40.3442C177.389 40.1691 176.981 39.9011 176.642 39.5575C176.303 39.214 176.04 38.8028 175.87 38.3507C175.804 38.2375 175.785 38.1024 175.818 37.9751C175.85 37.8479 175.933 37.7389 176.046 37.6721C176.159 37.6054 176.294 37.5864 176.421 37.6193C176.549 37.6521 176.658 37.7342 176.724 37.8475C176.828 38.1851 177.004 38.4963 177.239 38.7599C177.474 39.0234 177.763 39.2331 178.087 39.3746C178.411 39.5161 178.761 39.586 179.114 39.5796C179.467 39.5732 179.815 39.4906 180.133 39.3375C180.248 39.2775 180.381 39.264 180.505 39.3C180.63 39.336 180.735 39.4185 180.8 39.5305C180.865 39.6424 180.884 39.7751 180.854 39.9008C180.823 40.0266 180.745 40.1357 180.636 40.2054ZM180.91 27.5072C181.927 26.6521 183.488 27.315 183.093 28.0594C182.899 28.4252 182.287 28.3005 181.26 28.353C181.163 28.351 181.069 28.321 180.989 28.2666C180.91 28.2122 180.847 28.1357 180.81 28.0465C180.773 27.9573 180.763 27.8593 180.781 27.7643C180.798 27.6694 180.843 27.5817 180.91 27.5119V27.5072ZM183.68 30.8204C183.555 31.1769 183.429 31.5263 183.303 31.877C183.266 32.0038 183.181 32.1109 183.065 32.175C182.95 32.2392 182.814 32.2551 182.687 32.2195C182.561 32.1806 182.456 32.0948 182.392 31.98C182.328 31.8652 182.311 31.7303 182.344 31.6032C182.47 31.2467 182.591 30.8949 182.722 30.5466C182.759 30.4195 182.845 30.3122 182.961 30.2484C183.077 30.1846 183.213 30.1695 183.34 30.2064C183.467 30.2434 183.575 30.3293 183.638 30.4453C183.702 30.5613 183.717 30.6979 183.68 30.825V30.8204Z" fill="#FFCEB6"/>
<path d="M62.1892 190.213C65.1781 192.862 67.8505 195.847 70.1529 199.111C70.1529 199.111 73.0654 195.064 72.2872 191.354C72.2872 191.354 67.2836 187.813 62.1892 190.213Z" fill="#97A0B2"/>
<path d="M100.962 62.3841C100.845 62.5006 97.4552 65.7625 95.8884 67.2828L101.417 73.0004C101.481 69.6791 101.631 66.2192 101.802 63.266L100.962 62.3841ZM76.0419 48.6654C72.822 48.6864 71.1316 47.4818 71.9133 42.3256C73.0846 42.8826 74.3593 43.1889 75.6558 43.225C76.9522 43.2611 78.242 43.0262 79.4425 42.5353C80.0844 46.198 79.7908 48.6269 76.0419 48.6654Z" fill="#FFCEB6"/>
<path d="M84.1839 33.7258C83.8065 33.6769 83.6527 34.0544 83.7366 34.3549C83.3206 36.0529 82.6978 37.6934 81.882 39.2396C80.9209 40.5739 79.541 41.5482 77.962 42.0073C76.3831 42.4665 74.6959 42.3842 73.1692 41.7734C67.7381 39.9165 68.613 34.97 68.2914 33.3472C68.2694 33.2651 68.2262 33.1902 68.166 33.1301C68.1059 33.07 68.031 33.0267 67.9489 33.0047C66.4717 32.6191 64.814 31.3178 64.7441 29.6729C64.7278 29.2474 64.8338 28.8261 65.0496 28.459C65.2653 28.0919 65.5818 27.7944 65.9615 27.6016C66.8154 27.2381 67.4864 28.4485 67.8091 29.0508C67.8597 29.1325 67.9326 29.1979 68.0194 29.2391C68.1061 29.2804 68.2029 29.2958 68.2981 29.2835C68.3933 29.2713 68.483 29.2318 68.5564 29.1698C68.6298 29.1079 68.6838 29.0261 68.712 28.9343C68.9179 27.6682 69.1901 26.4137 69.5275 25.1761C72.6076 25.246 76.106 24.6088 78.3241 22.3418C78.451 23.4227 78.7911 24.4678 79.3246 25.4164C79.8581 26.3651 80.5745 27.1985 81.4323 27.8684C81.1148 27.6494 80.7459 27.5165 80.3617 27.4828C80.2304 27.4846 80.1051 27.5376 80.0124 27.6305C79.9196 27.7235 79.8669 27.8489 79.8654 27.9802C79.9073 28.7386 80.9663 28.2773 81.3694 29.2465C81.7189 29.9164 83.1331 29.1871 81.5301 27.9453C82.2968 28.5807 83.147 29.1079 84.057 29.5121C84.029 29.8616 84.008 30.2111 83.9801 30.5478C83.9451 31.0243 84.5253 31.1431 84.827 30.8973C85.4162 30.3823 86.0945 29.9793 86.8284 29.7079C87.6788 29.4376 88.0901 29.6193 88.3324 30.4767C88.9498 32.9278 86.1492 33.9751 84.1839 33.7258ZM37.2135 97.0361C35.4709 98.7142 33.3559 99.9561 31.0415 100.66C28.727 101.364 26.2787 101.511 23.8968 101.088C21.8965 100.777 22.9275 100.364 23.8828 100.318C24.2261 100.316 24.5666 100.257 24.8905 100.143C24.9816 100.114 25.0626 100.06 25.1239 99.9864C25.1852 99.913 25.2243 99.8236 25.2365 99.7288C25.2487 99.6339 25.2336 99.5376 25.193 99.451C25.1523 99.3645 25.0878 99.2914 25.007 99.2402C24.0249 98.582 22.352 98.8069 22.2215 97.791C22.1586 97.2668 23.2782 97.4555 23.5799 97.4555C24.3767 97.4555 25.1678 97.4485 25.9658 97.4485C26.0837 97.4454 26.1967 97.4004 26.2845 97.3216C26.3723 97.2428 26.4293 97.1354 26.4453 97.0185C26.4612 96.9016 26.4351 96.7829 26.3716 96.6835C26.3081 96.584 26.2113 96.5104 26.0986 96.4758C25.1899 96.115 24.3692 95.5636 23.6917 94.8588C23.51 94.6701 22.9706 94.2437 23.369 94.0619C25.9625 93.8385 28.5671 94.3398 30.8924 95.51C31.3584 95.7337 31.963 95.1116 31.4947 94.733C29.5236 93.1486 28.9178 91.0773 31.0182 91.9545C32.7909 92.8555 34.4362 93.9876 35.9111 95.3213C36.3864 95.7477 37.0866 95.0487 36.6101 94.6223C35.2524 93.417 33.7776 92.3504 32.2077 91.4384C48.3635 66.0514 47.9347 66.8576 47.9604 66.8121C50.3812 67.7639 55.5467 69.8003 55.7144 69.8632C45.1656 86.3428 42.2031 92.6512 37.2135 97.0361Z" fill="#FFCEB6"/>
<path d="M185.963 18.4134C186.067 17.598 185.422 16.6439 184.625 16.7976C184.276 16.8687 184.276 16.9211 181.218 18.9319C181.767 18.066 182.069 17.0667 182.093 16.0416C182.023 15.0199 181.161 13.9912 180.147 14.131C178.236 14.3966 176.917 18.7723 170.72 20.7865C167.521 21.8291 161.858 22.1087 162.113 28.3856C162.253 30.0958 162.661 31.7735 163.32 33.3577C164.335 32.8684 165.931 32.8125 168.422 33.5907C168.422 33.5907 166.231 28.0279 169.345 26.9364C172.459 25.8448 176.343 28.3704 181.899 22.5549C182.054 23.0524 182.194 23.5486 182.334 24.0531C183.31 22.9944 184.151 21.8176 184.835 20.55C185.378 19.9396 185.765 19.2064 185.963 18.4134Z" fill="#C17E48"/>
<path d="M154.38 59.0511L155.168 60.1741C160.731 56.1538 162.446 55.2696 164.475 53.7668L162.421 50.9009C159.459 53.3244 156.763 56.0565 154.38 59.0511ZM90.4023 46.6721L88.8144 48.3963C92.3968 50.396 95.6066 53 98.3019 56.0932L98.6002 55.7437C95.3769 53.2023 92.6054 50.1354 90.4023 46.6721ZM64.3652 46.0838C63.7128 45.6656 61.8745 45.8951 61.1033 45.944L60.8703 45.958C59.5381 45.5538 58.1135 45.5716 56.7918 46.0089C55.4701 46.4462 54.316 47.2817 53.4877 48.4007C52.6595 49.5197 52.1977 50.8675 52.1656 52.2593C52.1335 53.6511 52.5327 55.0188 53.3085 56.1748C54.9569 58.8123 56.9781 57.0741 56.2547 53.9613C56.8244 55.3989 58.0767 55.6377 58.7186 55.1018C59.5783 54.3644 59.2021 52.2302 58.7815 51.1549C59.1045 51.7803 59.555 52.3311 60.1037 52.7719C60.3837 52.985 60.7223 53.1073 61.0738 53.1223C61.4254 53.1373 61.7731 53.0443 62.0702 52.8558C63.1536 52.01 62.6585 49.5508 62.1716 48.2506C62.788 48.4987 63.4653 48.5535 64.1136 48.4079C64.3671 48.3541 64.5971 48.2215 64.7708 48.0292C64.9445 47.8369 65.0531 47.5946 65.081 47.337C65.1089 47.0793 65.0547 46.8194 64.9262 46.5944C64.7976 46.3694 64.6013 46.1907 64.3652 46.0838ZM134.425 16.5763C133.948 16.5593 133.474 16.6499 133.036 16.8413C132.599 17.0326 132.211 17.3199 131.9 17.6818C131.752 16.4989 131.584 15.3186 131.395 14.1415C130.905 11.1254 128.081 9.71462 125.034 9.49444C122.528 9.18677 119.986 9.31963 117.525 9.88703C115.946 10.1372 114.491 10.8964 113.382 12.0492C111.899 13.8398 112.074 16.4295 112.312 18.7455C112.417 19.7112 112.823 23.4869 112.921 24.4177C118.946 30.394 126.245 27.4466 132.221 21.4645L132.249 21.4365C132.27 21.4365 132.284 21.4295 132.298 21.4295C136.918 20.875 136.918 16.5763 134.425 16.5763ZM196.415 54.1314C195.581 52.9818 194.414 52.1154 193.073 51.6486C191.732 51.1818 190.28 51.1372 188.912 51.5207C186.601 51.3856 185.823 51.2073 185.068 51.9086C184.908 52.0614 184.794 52.2549 184.736 52.4682C184.679 52.6815 184.681 52.9064 184.743 53.1185C184.804 53.3306 184.922 53.5219 185.085 53.6715C185.247 53.8211 185.448 53.9233 185.664 53.9671C186.313 54.1186 186.992 54.0649 187.608 53.8134C187.101 55.0727 186.637 57.5832 187.708 58.4173C188.004 58.6078 188.352 58.702 188.703 58.687C189.055 58.672 189.394 58.5485 189.673 58.3335C190.224 57.8946 190.675 57.3433 190.996 56.7165C190.586 57.7649 190.192 59.9504 191.059 60.6634C191.67 61.183 192.934 61.0129 193.522 59.5229C192.833 62.3433 194.594 64.2701 196.258 62.0707C197.092 60.9214 197.553 59.5447 197.581 58.1255C197.609 56.7063 197.202 55.3125 196.415 54.1314Z" fill="#9B6868"/>
<path d="M113.383 12.0492C114.491 10.8969 115.946 10.1378 117.525 9.88705C120.826 9.12516 126.157 8.98653 129.093 10.713C129.705 11.0806 130.228 11.5783 130.626 12.1708C131.024 12.7633 131.287 13.4362 131.395 14.1415C131.584 15.317 131.753 16.5006 131.9 17.6819C132.862 16.5681 134.936 16.0789 135.759 17.21C136.377 16.5661 136.758 15.7326 136.843 14.8446C136.928 13.9566 136.71 13.0661 136.225 12.3172C135.987 12.0767 135.834 11.7643 135.791 11.4283C135.808 10.9996 137.072 8.64752 135.651 6.22904C135.243 5.51861 134.636 4.94321 133.905 4.57387C133.174 4.20453 132.35 4.05743 131.536 4.15074C131.423 3.45358 131.06 2.82151 130.515 2.37299C129.349 1.08925 127.769 0.256943 126.05 0.0220853C125.195 -0.0699622 124.332 0.127401 123.602 0.582667C122.871 1.03793 122.314 1.72485 122.02 2.53376C118.898 -0.577873 113.621 0.507877 112.488 2.69453C112.339 2.96486 112.268 3.27107 112.282 3.5794C112.296 3.88774 112.394 4.18623 112.567 4.44198C111.752 3.47039 110.113 3.7197 109.01 4.41053C106.634 5.90402 106.533 8.17804 107.667 9.26728C107.989 9.57484 108.436 9.82647 108.535 10.261C108.552 10.495 108.496 10.7286 108.374 10.9292C108.253 11.1298 108.071 11.2875 107.856 11.3805C107.442 11.5984 106.967 11.6811 106.548 11.885C106.226 12.0755 105.947 12.3309 105.73 12.6349C105.512 12.9389 105.36 13.2849 105.283 13.6509C105.207 14.0169 105.207 14.3948 105.284 14.7607C105.361 15.1265 105.514 15.4723 105.732 15.776C106.221 16.3561 106.896 16.749 107.642 16.8879C108.388 17.0267 109.16 16.9031 109.825 16.5379C109.322 16.988 108.986 17.595 108.872 18.2602C108.757 18.9255 108.871 19.6098 109.195 20.202C109.519 20.7941 110.034 21.2592 110.656 21.5216C111.278 21.7841 111.97 21.8284 112.621 21.6474C112.209 17.8508 111.542 14.2708 113.383 12.0492ZM132.249 21.4366C126.271 27.414 118.969 30.4185 112.921 24.4177C113.363 28.5312 113.379 28.6815 113.421 29.589C113.507 31.5438 113.603 34.1837 115.121 35.1389C117.194 36.446 122.528 36.4076 125.03 35.902C127.67 35.3696 131.132 33.9984 132.316 31.3737C132.593 30.7316 132.747 30.0433 132.77 29.3444C132.797 28.7456 132.411 21.4366 132.249 21.4366ZM128.509 29.1067C128.463 29.7348 128.197 30.3265 127.758 30.7782C127.319 31.2298 126.735 31.5124 126.109 31.5765C125.278 31.7706 124.409 31.705 123.617 31.3885C122.825 31.072 122.15 30.5199 121.682 29.8069C122.971 29.8993 124.263 29.6752 125.446 29.1542C126.629 28.6332 127.667 27.8311 128.469 26.8175C128.613 27.5727 128.627 28.347 128.509 29.1067Z" fill="#C17E48"/>
<path d="M163.097 175.409C161.992 176.974 159.652 184.819 161.953 190.122C163.234 193.075 166.403 194.685 168.635 191.648C169.817 190.038 169.683 188.085 169.8 186.189C170.364 177.323 170.563 176.626 170.067 175.413C167.778 175.98 165.385 175.978 163.097 175.409ZM139.476 184.552C137.446 186.11 137.146 188.973 137.495 189.591C134.279 190.809 133.499 193.948 135.256 194.79C136.038 195.164 140.139 195.023 140.925 195C148.465 194.791 149.25 194.883 149.217 191.208C149.136 184.532 143.232 181.677 139.476 184.552ZM142.498 193.957C140.832 194.035 139.166 194.065 137.501 194.048C136.415 194.029 135.735 194.099 135.472 193.705C135.374 193.48 135.336 193.233 135.36 192.988C135.384 192.743 135.471 192.509 135.611 192.307C136.016 191.728 136.536 191.238 137.14 190.871C137.744 190.503 138.417 190.265 139.118 190.172C140.924 189.933 142.759 190.021 144.534 190.432C144.64 190.45 144.749 190.435 144.846 190.389C144.943 190.343 145.023 190.268 145.075 190.174C145.128 190.08 145.149 189.972 145.137 189.865C145.126 189.758 145.081 189.658 145.009 189.578C145.357 189.568 145.704 189.622 146.032 189.739C146.158 189.771 146.292 189.754 146.405 189.69C146.519 189.626 146.603 189.521 146.64 189.396C146.963 188.251 143.801 188.505 142.337 189.163C141.039 189.014 139.726 189.07 138.446 189.331C138.369 188.669 138.443 187.999 138.661 187.371C138.879 186.742 139.237 186.17 139.706 185.698C142.46 183.006 147.383 184.758 148.152 189.982C148.745 194.317 147.535 193.705 142.498 193.957ZM134.555 150.095C138.07 150.981 141.746 151.005 145.273 150.165C145.896 150.018 145.633 149.059 145.01 149.212C141.657 150.016 138.157 149.992 134.815 149.143C134.691 149.116 134.562 149.137 134.453 149.203C134.345 149.268 134.266 149.373 134.233 149.495C134.199 149.617 134.214 149.748 134.274 149.859C134.334 149.971 134.435 150.055 134.555 150.095ZM124.982 17.7914C125.087 17.8403 125.2 17.8679 125.316 17.8727C125.431 17.8775 125.546 17.8594 125.654 17.8193C126.153 17.7389 126.664 17.8007 127.13 17.9974C127.595 18.1942 127.995 18.518 128.285 18.9319C128.354 19.0396 128.463 19.1163 128.588 19.1458C128.713 19.1753 128.844 19.1553 128.954 19.0901C129.065 19.0249 129.146 18.9195 129.18 18.7959C129.214 18.6724 129.2 18.5403 129.139 18.4274C128.68 17.7814 128.043 17.283 127.305 16.9934C126.908 16.8176 126.476 16.7366 126.043 16.7568C125.609 16.7771 125.186 16.8979 124.808 17.1099C124.741 17.2235 124.721 17.359 124.754 17.4867C124.787 17.6144 124.869 17.724 124.982 17.7914ZM114.296 20.8075C114.509 20.7189 115.488 18.9109 117.382 18.9109C117.513 18.9079 117.638 18.8546 117.73 18.7619C117.823 18.6693 117.876 18.5445 117.879 18.4135C117.879 17.4943 115.357 17.9335 114.043 19.5784C113.61 20.1038 113.435 20.3287 113.603 20.6141C113.675 20.7256 113.785 20.8069 113.913 20.8425C114.04 20.8781 114.177 20.8657 114.296 20.8075ZM117.179 22.8718C117.172 22.6839 117.092 22.5062 116.956 22.3759C116.821 22.2456 116.64 22.1728 116.452 22.1728C116.264 22.1728 116.083 22.2456 115.947 22.3759C115.812 22.5062 115.732 22.6839 115.724 22.8718C115.732 23.0597 115.812 23.2374 115.947 23.3677C116.083 23.498 116.264 23.5708 116.452 23.5708C116.64 23.5708 116.821 23.498 116.956 23.3677C117.092 23.2374 117.172 23.0597 117.179 22.8718ZM125.829 20.3415C125.636 20.3415 125.451 20.4182 125.314 20.5547C125.178 20.6913 125.101 20.8765 125.101 21.0696C125.101 21.2627 125.178 21.4479 125.314 21.5844C125.451 21.721 125.636 21.7977 125.829 21.7977C126.022 21.7977 126.208 21.721 126.344 21.5844C126.481 21.4479 126.557 21.2627 126.557 21.0696C126.557 20.8765 126.481 20.6913 126.344 20.5547C126.208 20.4182 126.022 20.3415 125.829 20.3415ZM122.771 24.6064C123.131 24.4864 123.462 24.2933 123.744 24.0393C124.025 23.7853 124.251 23.4759 124.408 23.1304C124.443 23.0037 124.426 22.8684 124.361 22.7543C124.296 22.6401 124.188 22.5565 124.061 22.5217C123.935 22.487 123.799 22.5039 123.685 22.5689C123.571 22.6339 123.487 22.7416 123.453 22.8683C123.367 23.0554 123.225 23.2116 123.047 23.3156C122.287 23.8387 122.016 24.0076 121.591 22.8497C121.116 21.5681 120.829 20.2246 120.738 18.8608C120.696 18.2306 119.703 18.2236 119.752 18.8608C119.895 21.1208 120.653 25.4545 122.771 24.6064ZM163.547 48.5885C159.901 44.0195 153.257 32.5434 140.867 29.4911C138.195 28.912 135.484 28.5308 132.756 28.3506C132.776 28.6793 132.776 29.0088 132.756 29.3374C141.338 30.0177 147.099 31.566 154.129 38.4696C157.084 41.3727 157.656 42.3641 160.986 46.8888C156.227 49.2824 152.254 52.9907 149.539 57.5739C147.965 55.5037 148.338 55.2976 144.01 48.0293C143.942 47.9191 143.835 47.8396 143.709 47.8079C143.584 47.7762 143.452 47.7948 143.34 47.8597C143.228 47.9245 143.146 48.0306 143.112 48.1551C143.078 48.2795 143.093 48.4125 143.156 48.5256C144.604 50.9542 145.987 53.42 147.305 55.9231C147.239 56.3204 147.839 58.0329 147.733 70.4363C147.733 71.0712 147.244 93.554 147.054 94.1528C146.641 95.4203 141.294 97.3588 140.252 97.7071C129.846 101.176 116.669 100.42 106.102 98.0018C104.636 97.6524 104.362 97.7176 103.953 95.7965C102.017 86.7937 102.206 73.5014 102.742 64.2503C103.27 55.809 103.369 55.4339 104.31 46.8539C104.38 46.2236 103.386 46.2236 103.323 46.8539C103.127 48.6444 102.925 50.4431 102.728 52.2348C99.5079 49.7966 93.9149 44.8641 92.3014 41.1222C98.4618 36.0448 105.695 32.4337 113.456 30.5618C113.447 30.4453 113.406 29.7008 113.4 29.582C106.179 31.2654 99.395 34.4539 93.4908 38.9391C92.0143 39.8514 90.7445 41.062 89.7629 42.4934C89.4951 42.8801 89.3264 43.3267 89.2715 43.7939C89.2167 44.2611 89.2774 44.7346 89.4484 45.1728C92.2326 49.8327 96.9974 55.6948 102.115 57.6916C102.091 57.8896 102.061 57.9945 102.164 58.1575C102.048 59.4099 101.954 60.6552 101.87 61.9088C101.681 61.7119 101.499 61.5162 101.31 61.3204C101.215 61.233 101.09 61.1845 100.961 61.1845C100.831 61.1845 100.706 61.233 100.611 61.3204C94.3261 67.3969 94.5847 66.9822 94.6907 67.3526C94.7734 67.6812 98.2206 71.0724 101.381 74.3996C101.302 80.9537 101.592 90.1266 103.089 96.527C103.131 97.013 103.314 97.4762 103.616 97.8593C103.918 98.2423 104.326 98.5284 104.789 98.6822C106.845 99.4534 114.218 100.501 118.135 100.809C124.871 101.459 131.67 100.96 138.24 99.3334C141.313 98.5373 144.263 97.3246 147.008 95.729C148.279 94.8354 148.1 93.7765 148.163 92.2655C148.198 91.3335 148.771 67.6392 148.745 64.9948C148.733 62.5797 148.632 60.1658 148.445 57.758C149.431 59.0783 150.418 60.3916 151.405 61.6979C151.45 61.7704 151.513 61.8301 151.588 61.8716C151.662 61.913 151.746 61.9347 151.832 61.9347C151.917 61.9347 152.001 61.913 152.076 61.8716C152.151 61.8301 152.214 61.7704 152.259 61.6979C155.205 57.7081 158.61 54.0795 162.406 50.887C164.302 49.4354 164.581 49.835 163.547 48.5885ZM101.417 72.9981C99.5722 71.0942 97.7292 69.1883 95.8883 67.2804C97.4622 65.766 100.843 62.504 100.962 62.3817L101.802 63.2636C101.613 66.5058 101.485 69.7512 101.417 72.9981ZM90.752 45.3755C90.286 44.6276 89.9947 44.3876 90.5003 43.2902C90.7601 42.7446 91.121 42.2532 91.564 41.8422C93.9312 47.0041 102.498 53.2507 102.615 53.3672C102.498 54.4728 102.369 55.5806 102.251 56.6839C97.6474 54.785 93.3871 49.5787 90.752 45.3755ZM151.851 60.6517C151.299 59.9108 150.746 59.1757 150.186 58.4383C152.843 53.8109 156.813 50.0751 161.593 47.7031C162.012 48.2635 162.447 48.8168 162.895 49.355C159.066 51.8993 154.654 56.9914 151.846 60.6529L151.851 60.6517Z" fill="#1D1D1B"/>
<path d="M107.362 48.267C107.129 48.2017 106.547 48.4405 106.556 48.8495C106.738 55.1182 106.224 60.4199 110.042 63.2578C113.283 65.6763 118.245 63.9113 119.711 57.4143C120.293 54.8514 120.79 51.1712 119.978 48.677C119.944 48.5789 119.88 48.4937 119.796 48.4328C119.712 48.3719 119.611 48.3384 119.507 48.3368C119.403 48.3351 119.301 48.3654 119.215 48.4236C119.129 48.4817 119.063 48.5649 119.026 48.6619C109.625 48.592 109.159 48.7656 107.362 48.267ZM116.299 61.9554C115.612 62.6568 114.711 63.1087 113.738 63.2392C112.766 63.3696 111.777 63.1711 110.93 62.6753C107.228 60.3722 107.828 54.4611 107.662 53.1028C111.539 53.7258 115.487 53.7682 119.376 53.2286C119.079 56.3262 118.46 59.9831 116.299 61.9554ZM119.195 49.6172C119.385 50.4808 119.463 51.3652 119.428 52.2488C115.51 52.7948 111.532 52.7453 107.629 52.102C107.601 51.1782 107.58 50.2474 107.553 49.3236C109.33 49.6036 111.131 49.7019 112.927 49.6172C117.351 49.6475 119.053 49.6789 119.195 49.6172ZM56.1082 188.212C51.3912 190.682 58.5791 198.66 61.8398 199.563C64.593 200.255 67.4911 200.097 70.153 199.111C67.5808 195.424 60.0889 186.128 56.1082 188.212ZM89.1455 188.55C83.9742 189.446 80.9442 195.969 80.9442 195.969C86.5615 196.954 92.3109 196.915 97.9143 195.852C97.9143 195.852 94.3098 187.653 89.1455 188.55ZM125.045 193.663C118.559 190.849 111.913 192.855 110.146 195.21C109.064 196.649 109.309 198.43 111.68 199.36C114.941 200.569 121.457 199.875 124.877 199.184C130.1 198.132 129.546 195.613 125.045 193.663ZM120.889 198.789C101.563 200.798 113.02 189.743 124.331 194.424C127.541 195.758 127.676 196.837 127.55 196.586C128.122 198 122.439 198.621 120.889 198.785V198.789ZM42.6097 105.762C41.4591 103.995 40.0666 102.397 38.4729 101.017C37.1511 102.538 35.7533 103.991 34.2848 105.37C35.649 106.371 38.2702 107.352 42.6097 105.762ZM19.6388 126.234C20.6873 124.593 22.5407 120.438 22.3893 117.872C22.3532 117.242 21.3606 117.235 21.4026 117.872C21.5191 119.895 20.3681 122.731 19.4571 124.541C16.9174 129.621 11.5772 130.567 12.3298 125C12.7238 122.873 13.6477 120.88 15.0162 119.204C16.3303 117.439 18.2199 115.118 20.29 114.408C20.8911 114.205 20.6325 113.243 20.0232 113.456C17.7387 114.257 16.074 116.225 14.6178 118.099C13.0155 119.962 11.9063 122.197 11.392 124.6C10.3691 131.05 16.3967 131.318 19.6388 126.234ZM16.1567 138.008C16.3897 137.414 15.4368 137.158 15.2049 137.746C12.4839 144.703 12.0021 152.336 13.8268 159.58C13.862 159.706 13.9459 159.813 14.0601 159.877C14.1742 159.942 14.3092 159.958 14.4355 159.923C14.5617 159.888 14.6687 159.804 14.7331 159.69C14.7974 159.575 14.8138 159.44 14.7785 159.314C13.0019 152.242 13.4839 144.792 16.1567 138.008ZM39.7613 166C39.0096 164.06 38.8202 161.947 39.2149 159.905C39.3408 159.283 38.3832 159.017 38.2632 159.639C37.954 161.251 37.9611 162.907 38.2841 164.516C38.6955 166.058 39.2924 167.544 40.0619 168.943C40.6185 170.441 40.5835 172.096 39.964 173.57C39.6658 173.57 38.6826 172.233 38.3051 171.442C38.0511 170.902 37.1401 171.289 37.4512 171.945C37.9357 172.962 38.6544 173.849 39.5481 174.535C39.3102 175.012 39.0437 175.474 38.7501 175.92C38.0131 175.374 37.4335 174.643 37.0702 173.801C37.0655 173.794 37.0631 173.786 37.0632 173.778C37.0073 173.639 36.9584 173.491 36.9095 173.351C36.8919 173.288 36.8623 173.23 36.8222 173.179C36.7821 173.128 36.7323 173.085 36.6758 173.053C36.6192 173.022 36.5569 173.001 36.4925 172.994C36.428 172.986 36.3627 172.991 36.3002 173.008C36.2377 173.026 36.1793 173.056 36.1282 173.096C36.0772 173.136 36.0346 173.186 36.0028 173.242C35.9709 173.299 35.9506 173.361 35.9429 173.425C35.9351 173.49 35.9402 173.555 35.9577 173.618C36.3547 174.86 37.1333 175.945 38.1828 176.719C38.0445 176.894 37.8951 177.06 37.7354 177.215C37.4628 177.474 37.224 177.621 36.9304 177.319C36.195 176.399 35.5395 175.419 34.971 174.388C32.7513 170.359 31.8623 165.732 32.4313 161.168C32.4882 159.577 33.1513 158.067 34.2848 156.949C34.7732 156.527 35.4045 156.307 36.0497 156.334C36.695 156.361 37.3054 156.634 37.7564 157.096C38.1548 157.592 38.855 156.886 38.4554 156.397C36.9502 154.533 33.2317 154.979 31.9316 158.832C30.8575 161.977 31.2034 166.68 32.0993 169.965C32.0581 169.972 32.0186 169.987 31.9828 170.009C31.3255 170.419 30.6143 170.737 29.8696 170.952C29.8556 170.589 29.7018 166.747 29.6039 165.193C29.5962 165.111 29.5696 165.032 29.5261 164.963C29.4827 164.893 29.4236 164.835 29.3536 164.792C29.2836 164.749 29.2046 164.723 29.1229 164.716C29.0412 164.71 28.959 164.722 28.8828 164.752C28.3982 164.942 28.7034 164.787 28.9038 171.897C29.1996 179.982 29.0409 188.077 28.4285 196.145C26.6496 194.085 24.6668 192.398 21.9548 192.73C23.136 188.019 22.451 184.918 21.3723 180.792C19.9919 175.531 18.3242 170.349 16.3769 165.271C16.1183 164.688 15.2632 165.194 15.523 165.767C16.8196 168.671 21.5039 182.793 21.5691 187.615C21.6274 191.132 20.7816 192.508 21.0088 192.962C20.0677 193.39 19.2335 194.022 18.5666 194.813C17.8997 195.603 17.4168 196.531 17.1527 197.531C17.2726 197.905 17.378 198.283 17.4685 198.665C20.9878 200.385 24.8858 199.364 28.4413 198.315C28.5065 198.296 29.2568 197.741 29.2871 197.483C29.2871 196.415 29.7787 194.744 29.9593 185.187C30.1538 174.524 29.7367 171.947 29.9383 171.947C30.7847 171.708 31.5965 171.361 32.3533 170.913C32.9742 172.857 35.3542 178.102 36.9083 178.47C38.0139 178.721 39.0845 177.156 39.6937 176.209C43.0908 170.938 40.5174 167.937 39.7613 166ZM24.3837 198.348L24.6983 196.102C24.7335 195.975 24.7171 195.84 24.6528 195.726C24.5884 195.612 24.4814 195.528 24.3552 195.493C24.229 195.458 24.0939 195.474 23.9798 195.538C23.8656 195.603 23.7817 195.71 23.7465 195.836L23.369 198.503C22.6287 198.598 21.8814 198.629 21.1358 198.593C20.862 196.311 22.2844 195.711 21.4934 195.235C21.3797 195.17 21.2452 195.152 21.1185 195.185C20.9918 195.217 20.8827 195.298 20.8142 195.41C20.2931 196.34 20.0638 197.405 20.156 198.468C19.4545 198.352 18.7725 198.139 18.1302 197.834C18.1441 197.779 18.1465 197.815 18.1616 197.771C18.8128 195.686 20.4088 193.558 22.8215 193.642C25.0862 193.724 26.822 195.598 28.2235 197.35C26.9613 197.752 25.6783 198.085 24.3802 198.348H24.3837ZM28.2433 112.361C28.4881 112.361 28.7274 112.434 28.9309 112.571C29.1344 112.707 29.293 112.9 29.3865 113.127C29.4801 113.353 29.5044 113.602 29.4565 113.842C29.4086 114.082 29.2906 114.303 29.1173 114.476C28.9441 114.649 28.7234 114.767 28.4833 114.814C28.2431 114.862 27.9941 114.837 27.7679 114.744C27.5417 114.65 27.3484 114.491 27.2124 114.287C27.0763 114.084 27.0037 113.844 27.0037 113.6C27.0037 113.437 27.0358 113.276 27.0981 113.125C27.1604 112.975 27.2517 112.839 27.3669 112.724C27.482 112.609 27.6186 112.517 27.769 112.455C27.9194 112.393 28.0805 112.361 28.2433 112.361ZM36.5565 119.555C38.5789 119.555 39.3664 114.946 39.3664 114.946C38.4574 115.211 37.5005 115.268 36.5664 115.114C35.6323 114.959 34.7451 114.596 33.9702 114.052C33.9702 114.052 34.5341 119.555 36.5565 119.555ZM56.8712 69.848C56.9069 69.7822 56.9276 69.7093 56.9316 69.6345C56.9356 69.5597 56.923 69.485 56.8945 69.4157C56.8661 69.3465 56.8226 69.2844 56.7672 69.234C56.7118 69.1837 56.6458 69.1463 56.5742 69.1246C54.5261 68.3196 47.9534 65.7287 47.8648 65.6914C47.7588 65.6624 47.6462 65.6695 47.5447 65.7117C47.4432 65.7539 47.3587 65.8288 47.3045 65.9244C46.7663 66.7632 31.8465 90.0533 31.2931 90.9899C29.5387 90.3317 28.4763 91.3009 28.7186 92.5043C29.082 94.2949 30.3146 93.9023 27.4732 93.3198C26.171 93.0357 24.8361 92.9298 23.5053 93.0053C21.9781 93.2383 21.4165 94.5745 24.0505 96.4618C23.6451 96.4618 23.2351 96.4618 22.8331 96.4687C20.5824 96.4897 20.8166 98.9361 22.7166 99.5198C21.5284 99.9159 21.236 101.632 23.0871 101.966C33.9353 103.863 39.7706 97.1176 45.5093 88.0414C46.1756 86.9754 56.4879 70.6146 56.8712 69.848ZM37.2135 97.0361C35.4709 98.7142 33.3559 99.9561 31.0414 100.66C28.727 101.364 26.2787 101.511 23.8968 101.088C21.8965 100.777 22.9275 100.364 23.8828 100.318C24.2261 100.316 24.5666 100.257 24.8905 100.143C24.9816 100.114 25.0626 100.06 25.1239 99.9864C25.1852 99.913 25.2242 99.8236 25.2365 99.7288C25.2487 99.6339 25.2336 99.5376 25.193 99.451C25.1523 99.3645 25.0878 99.2913 25.007 99.2402C24.0249 98.582 22.352 98.8068 22.2215 97.791C22.1586 97.2667 23.2782 97.4555 23.5799 97.4555C24.3767 97.4555 25.1677 97.4485 25.9657 97.4485C26.0837 97.4453 26.1966 97.4003 26.2845 97.3216C26.3723 97.2428 26.4293 97.1354 26.4453 97.0185C26.4612 96.9016 26.4351 96.7829 26.3716 96.6834C26.3081 96.584 26.2113 96.5104 26.0986 96.4757C25.1899 96.115 24.3692 95.5636 23.6917 94.8587C23.51 94.67 22.9706 94.2436 23.369 94.0619C25.9625 93.8385 28.5671 94.3398 30.8924 95.51C31.3584 95.7337 31.963 95.1116 31.4947 94.7329C29.5236 93.1486 28.9178 91.0773 31.0182 91.9545C32.7909 92.8554 34.4362 93.9876 35.9111 95.3212C36.3864 95.7476 37.0865 95.0486 36.6101 94.6223C35.2523 93.4169 33.7775 92.3503 32.2076 91.4384C48.3634 66.0514 47.9347 66.8575 47.9604 66.8121C50.3812 67.7639 55.5466 69.8003 55.7144 69.8632C45.1656 86.3428 42.2031 92.6511 37.2135 97.0361ZM175.465 30.6969C175.586 30.6575 175.688 30.5728 175.748 30.4605C175.808 30.3482 175.822 30.217 175.788 30.0942C175.754 29.9715 175.673 29.8668 175.564 29.802C175.454 29.7371 175.324 29.7172 175.2 29.7463C174.607 29.8424 174.051 30.0998 173.595 30.4902C173.138 30.8805 172.798 31.3889 172.611 31.9597C172.4 32.5259 173.31 32.8917 173.562 32.2253C173.959 31.2374 174.413 31.0697 175.465 30.6969ZM177.093 33.8586C177.124 33.7316 177.106 33.5972 177.041 33.4836C176.975 33.37 176.869 33.2861 176.743 33.2493C176.205 33.0746 175.672 32.8999 175.134 32.7309C175.01 32.7021 174.879 32.7224 174.77 32.7874C174.66 32.8525 174.58 32.9574 174.545 33.0803C174.511 33.2032 174.526 33.3345 174.586 33.447C174.646 33.5594 174.747 33.6443 174.869 33.6839C175.407 33.8586 175.939 34.0334 176.477 34.2011C176.54 34.2192 176.606 34.2247 176.671 34.2173C176.736 34.2099 176.799 34.1897 176.856 34.1578C176.913 34.126 176.964 34.0832 177.004 34.0318C177.045 33.9805 177.075 33.9216 177.093 33.8586ZM183.338 30.2088C182.739 30.076 182.668 30.6922 182.344 31.6067C182.31 31.7331 182.327 31.8678 182.392 31.9817C182.456 32.0956 182.563 32.1796 182.689 32.2155C182.815 32.2514 182.95 32.2365 183.065 32.1738C183.179 32.1111 183.265 32.0058 183.303 31.8805C183.429 31.531 183.555 31.1815 183.68 30.8239C183.714 30.697 183.697 30.5619 183.633 30.4471C183.57 30.3324 183.464 30.2469 183.338 30.2088ZM183.093 28.0641C183.502 27.3371 181.939 26.651 180.91 27.5119C180.842 27.5817 180.797 27.6698 180.778 27.7653C180.76 27.8608 180.77 27.9596 180.807 28.0495C180.844 28.1394 180.907 28.2165 180.987 28.2712C181.068 28.326 181.162 28.356 181.26 28.3576C182.288 28.3064 182.908 28.4345 183.093 28.0641ZM180.133 39.3375C179.815 39.4906 179.467 39.5732 179.114 39.5796C178.761 39.586 178.411 39.5161 178.087 39.3746C177.763 39.2331 177.474 39.0235 177.239 38.7599C177.004 38.4963 176.828 38.1851 176.724 37.8475C176.502 37.3279 175.559 37.6622 175.871 38.3507C176.04 38.8027 176.303 39.2138 176.642 39.5572C176.981 39.9006 177.389 40.1686 177.839 40.3436C178.289 40.5187 178.77 40.5968 179.252 40.573C179.734 40.5492 180.206 40.4239 180.636 40.2054C180.745 40.1357 180.823 40.0266 180.854 39.9008C180.884 39.7751 180.865 39.6424 180.8 39.5305C180.735 39.4185 180.63 39.336 180.505 39.3C180.381 39.2641 180.248 39.2775 180.133 39.3375ZM165.303 34.3759C165.177 34.3427 165.043 34.3599 164.93 34.4239C164.817 34.4878 164.733 34.5935 164.696 34.7184C164.665 34.8444 164.683 34.9777 164.747 35.0909C164.81 35.2041 164.915 35.2887 165.039 35.3276C165.616 35.5003 166.139 35.8217 166.553 36.2596C166.646 36.3521 166.772 36.404 166.903 36.404C167.034 36.404 167.159 36.3521 167.252 36.2596C167.9 35.5618 166.105 34.6252 165.303 34.3759ZM166.767 39.8C166.989 39.573 167.149 39.2929 167.232 38.9863C167.315 38.6798 167.317 38.3572 167.239 38.0494C167.161 37.7417 167.005 37.4592 166.786 37.229C166.568 36.9988 166.294 36.8287 165.99 36.7349C165.864 36.7014 165.73 36.7184 165.616 36.7824C165.502 36.8463 165.418 36.9522 165.381 37.0774C165.217 37.7927 166.165 37.5364 166.291 38.3717C166.291 39.4633 165.003 39.4994 165.003 38.148C164.679 38.1157 164.357 38.0667 164.038 38.0013C163.96 38.3475 163.99 38.7092 164.122 39.0383C164.255 39.3674 164.485 39.6483 164.781 39.8435C165.078 40.0388 165.426 40.1392 165.781 40.1314C166.136 40.1237 166.48 40.008 166.767 39.8ZM219.552 103.11C217.267 98.3537 216.626 94.3403 213.569 88.8126C214.151 88.4339 214.747 88.194 214.507 87.6581C214.328 86.9451 213.109 84.0467 212.632 82.9772C212.571 82.8728 212.474 82.7947 212.358 82.7577C212.243 82.7207 212.118 82.7276 212.008 82.7769C211.891 82.8176 202.648 87.7583 202.022 88.6658C201.64 89.2285 201.823 89.2483 203.408 93.0193C203.458 93.1454 203.549 93.2511 203.667 93.3198C203.917 93.5703 204.071 93.4422 205.984 92.6476C207.123 95.3772 208.67 98.0508 208.817 101.035C208.901 102.791 208.223 104.499 208.019 106.228C207.587 109.823 209.868 110.856 211.763 107.606C211.996 108.986 212.42 111.051 213.443 111.818C213.613 111.962 213.819 112.055 214.039 112.089C214.259 112.122 214.484 112.095 214.688 112.008C214.915 111.861 215.105 111.665 215.246 111.435C215.387 111.205 215.475 110.946 215.504 110.678C215.794 109.526 215.569 109.619 215.853 110.063C217.147 112.209 219.444 110.634 218.731 108.222C219.054 108.46 219.449 108.579 219.85 108.562C220.25 108.544 220.633 108.389 220.934 108.124C222.056 107.002 220.657 105.425 219.552 103.11ZM204.185 92.3238C203.996 91.8753 203.12 89.797 203.057 89.6443C202.808 89.0619 201.536 89.5919 211.96 83.9278C212.498 85.1662 213.009 86.4255 213.475 87.6919C210.527 89.518 207.417 91.0685 204.185 92.3238ZM219.765 107.572C218.962 107.531 218.6 106.571 218.331 105.941C218.282 105.858 218.209 105.791 218.122 105.749C218.035 105.707 217.938 105.691 217.842 105.703C217.746 105.716 217.656 105.756 217.582 105.819C217.509 105.882 217.455 105.965 217.428 106.058C217.157 107.634 218.451 109.036 217.596 109.935C216.781 110.789 215.742 107.318 215.623 106.842C215.463 106.22 214.56 106.485 214.671 107.108C214.844 108.052 214.84 109.02 214.657 109.963C214.452 111.011 214.298 111.679 213.628 110.545C212.912 108.807 212.533 106.949 212.509 105.07C212.503 104.943 212.448 104.824 212.356 104.736C212.264 104.649 212.142 104.6 212.015 104.6C211.889 104.6 211.767 104.649 211.675 104.736C211.583 104.824 211.528 104.943 211.522 105.07C211.406 107.142 209.86 108.721 209.409 108.548C208.958 108.376 208.961 107.471 208.961 107.1C208.979 105.037 210.095 102.737 209.73 100.256C209.288 97.1293 208.035 95.0626 206.89 92.2644C208.89 91.4137 210.835 90.441 212.715 89.3519C215.965 95.27 216.589 99.9532 219.812 105.769C220.064 106.217 220.886 107.624 219.765 107.567V107.572ZM170.161 56.3775C169.478 56.6839 166.977 57.7848 166.921 57.8057C167.37 56.5576 167.716 55.275 167.957 53.9707C167.992 53.8444 167.976 53.7093 167.912 53.5951C167.848 53.4808 167.741 53.3968 167.614 53.3614C167.488 53.326 167.353 53.3422 167.239 53.4064C167.125 53.4707 167.04 53.5777 167.005 53.7039C166.234 57.956 165.296 58.1576 166.004 58.6585C166.772 59.199 167.534 58.6107 170.678 57.2314C171.183 57.0159 170.867 56.0606 170.161 56.3775ZM180.294 53.9427C180.597 55.212 180.656 56.5272 180.469 57.8185C179.398 57.4207 178.37 56.9132 177.404 56.3041C176.865 55.9616 176.368 56.8213 176.906 57.158C178.109 57.9098 179.397 58.5182 180.741 58.9707C180.868 59.004 181.003 58.986 181.117 58.9206C181.231 58.8553 181.315 58.7477 181.351 58.6212C181.67 56.9823 181.634 55.294 181.246 53.6701C181.099 53.0573 180.144 53.3253 180.294 53.9427ZM179.045 50.8509C179.071 50.7285 179.05 50.6007 178.986 50.4934C178.921 50.3861 178.819 50.3073 178.698 50.2731C178.578 50.2388 178.449 50.2517 178.338 50.309C178.226 50.3663 178.141 50.4639 178.099 50.5818C177.831 51.5395 177.335 52.4181 176.653 53.1422C175.972 53.8663 175.125 54.4144 174.185 54.7395C171.79 55.47 170.3 53.6561 169.664 51.2446C169.623 51.1245 169.539 51.0244 169.427 50.9646C169.315 50.9048 169.185 50.8899 169.063 50.9229C168.94 50.9559 168.835 51.0343 168.769 51.1422C168.702 51.25 168.679 51.3792 168.705 51.5033C170.552 58.5944 177.639 56.0723 179.045 50.8509Z" fill="#1D1D1B"/>
<path d="M204.22 89.698C204.141 89.746 204.074 89.8106 204.022 89.8872C203.971 89.9639 203.937 90.0508 203.922 90.1419C203.907 90.233 203.913 90.3262 203.938 90.4151C203.962 90.504 204.006 90.5864 204.066 90.6567C204.166 90.7412 204.287 90.7961 204.416 90.8152C204.545 90.8344 204.677 90.817 204.797 90.7651C205.533 90.0672 204.666 89.4265 204.22 89.698ZM174.365 60.0903C174.789 60.06 174.973 59.3575 174.567 59.0208C174.495 58.9754 174.414 58.9454 174.33 58.9326C174.246 58.9198 174.16 58.9245 174.078 58.9463C173.996 58.9682 173.919 59.0068 173.852 59.0597C173.786 59.1126 173.731 59.1787 173.691 59.2538C173.465 59.7827 173.876 60.124 174.365 60.0903ZM174.63 65.3839C175.054 65.3547 175.238 64.6523 174.831 64.3144C174.759 64.2691 174.679 64.239 174.595 64.2262C174.51 64.2134 174.425 64.2181 174.342 64.2399C174.26 64.2618 174.183 64.3004 174.117 64.3533C174.05 64.4062 173.995 64.4723 173.955 64.5474C173.719 65.0763 174.136 65.413 174.63 65.3839ZM158.698 71.9368C157.387 72.7957 156.022 73.567 154.61 74.2458C154.05 74.5533 154.547 75.4108 155.107 75.0997C155.824 74.706 158.398 73.315 158.491 73.2486C158.491 73.972 158.354 75.5471 158.271 76.3136C158.271 76.4449 158.323 76.5709 158.416 76.6637C158.509 76.7566 158.635 76.8087 158.766 76.8087C158.898 76.8087 159.024 76.7566 159.116 76.6637C159.209 76.5709 159.261 76.4449 159.261 76.3136C159.307 75.8767 159.654 72.5216 159.378 72.136C159.297 72.0386 159.19 71.9675 159.068 71.9319C158.947 71.8964 158.818 71.8981 158.698 71.9368ZM183.506 188.485C181.647 188.735 179.875 189.426 178.337 190.5C176.8 191.574 175.542 193 174.667 194.659C180.842 194.302 187.036 194.435 193.19 195.058C190.791 191.872 186.978 188.211 183.506 188.485ZM162.777 148.961C164.769 149.479 166.844 149.595 168.881 149.302C169.003 149.264 169.105 149.179 169.166 149.066C169.227 148.954 169.241 148.822 169.207 148.698C169.172 148.575 169.091 148.47 168.98 148.405C168.87 148.34 168.738 148.321 168.614 148.352C166.753 148.609 164.859 148.492 163.044 148.008C162.919 147.978 162.788 147.997 162.677 148.062C162.567 148.127 162.486 148.232 162.451 148.356C162.416 148.479 162.431 148.612 162.492 148.724C162.553 148.837 162.655 148.922 162.777 148.961Z" fill="#1D1D1B"/>
<path d="M95.2266 102.19C93.088 101.04 91.3908 99.2131 90.4001 96.9961C89.4095 94.779 89.1813 92.2961 89.7512 89.9356C89.898 89.3135 88.9462 89.0549 88.7994 89.67C88.1956 92.2413 88.4486 94.9396 89.5199 97.3539C90.5911 99.7682 92.4221 101.766 94.7338 103.044C95.2953 103.35 95.7869 102.496 95.2266 102.19ZM64.0089 92.2353C64.2912 93.9061 64.0832 95.6229 63.41 97.1779C62.7368 98.7329 61.6273 100.059 60.2157 100.997C59.1115 101.859 57.8063 102.427 56.4226 102.648C56.2959 102.654 56.1764 102.709 56.0889 102.8C56.0014 102.892 55.9526 103.014 55.9526 103.141C55.9526 103.268 56.0014 103.39 56.0889 103.482C56.1764 103.574 56.2959 103.628 56.4226 103.634C57.9406 103.46 59.3814 102.872 60.5874 101.934C62.2259 100.898 63.5178 99.3967 64.2976 97.6221C65.0774 95.8475 65.3095 93.8805 64.9642 91.9731C64.8453 91.3429 63.8936 91.612 64.0089 92.2353Z" fill="#AC47F5"/>
<path d="M91.6023 28.1409C91.106 26.0387 90.1578 24.0699 88.8236 22.3712C87.4894 20.6725 85.8012 19.2848 83.8765 18.3045C81.9517 17.3242 79.8366 16.7749 77.6781 16.6947C75.5195 16.6146 73.3695 17.0055 71.3773 17.8403C61.1256 22.1623 54.9081 40.0027 70.7692 43.543C70.6042 44.4001 70.6329 45.2832 70.8532 46.1278C71.0735 46.9723 71.4799 47.757 72.0425 48.4242C73.7899 50.0971 78.3496 50.2113 79.9503 47.9734C80.5654 50.3266 82.0123 50.2917 80.6994 51.1433C80.162 51.5011 79.7362 52.0031 79.4708 52.5917C79.2054 53.1803 79.1111 53.8318 79.1988 54.4715C79.2864 55.1112 79.5524 55.7132 79.9664 56.2088C80.3803 56.7043 80.9254 57.0732 81.5393 57.2733C80.9629 57.7847 80.5103 58.4203 80.2156 59.1323C79.921 59.8443 79.792 60.6139 79.8385 61.383C79.8849 62.1521 80.1056 62.9006 80.4838 63.5719C80.862 64.2432 81.3879 64.8198 82.0216 65.258C81.5091 65.982 81.1905 66.8251 81.0961 67.7071C81.0016 68.589 81.1346 69.4805 81.4822 70.2965C81.9028 71.2553 82.6309 72.3189 82.1335 73.2358C83.712 73.8182 85.9021 70.9978 85.2544 67.7907C85.1371 67.4507 85.1135 67.0854 85.1863 66.7332C85.2591 66.381 85.4255 66.0549 85.668 65.7893C86.7572 64.0605 87.5983 62.0089 86.5429 60.2475C86.3491 60.0443 86.2328 59.7795 86.2143 59.4993C86.1958 59.2192 86.2762 58.9414 86.4415 58.7144C87.3607 56.7456 87.7952 54.404 86.3087 52.8162C85.6097 52.0822 85.4268 51.9436 85.9383 50.8147C86.2922 50.193 86.4629 49.4837 86.4308 48.769C86.3986 48.0543 86.1649 47.3633 85.7565 46.7758C85.4571 46.4449 85.3558 46.3517 85.5235 45.916C85.9954 45.0469 86.2342 44.0705 86.2167 43.0817C90.145 40.5817 93.0469 34.3234 91.6023 28.1409ZM76.0418 48.6654C72.8219 48.6863 71.1315 47.4818 71.9132 42.3256C73.0845 42.8825 74.3592 43.1889 75.6557 43.225C76.9521 43.2611 78.2419 43.0262 79.4424 42.5353C80.0843 46.198 79.7907 48.6269 76.0418 48.6654ZM84.1838 33.7258C83.8064 33.6769 83.6526 34.0543 83.7365 34.3549C83.3205 36.0529 82.6976 37.6934 81.8818 39.2396C80.9207 40.5738 79.5408 41.5481 77.9619 42.0073C76.3829 42.4665 74.6958 42.3842 73.169 41.7734C67.7379 39.9165 68.6128 34.97 68.2913 33.3472C68.2693 33.2651 68.226 33.1902 68.1659 33.1301C68.1058 33.07 68.0309 33.0267 67.9488 33.0047C66.4716 32.6191 64.8139 31.3178 64.744 29.6729C64.7277 29.2474 64.8337 28.8261 65.0494 28.459C65.2652 28.0919 65.5817 27.7943 65.9614 27.6016C66.8153 27.2381 67.4863 28.4485 67.809 29.0508C67.8595 29.1325 67.9325 29.1978 68.0192 29.2391C68.106 29.2804 68.2027 29.2958 68.298 29.2835C68.3932 29.2712 68.4829 29.2317 68.5563 29.1698C68.6297 29.1079 68.6837 29.0261 68.7119 28.9343C68.9177 27.6682 69.1899 26.4137 69.5273 25.1761C72.6075 25.246 76.1059 24.6088 78.324 22.3417C78.4509 23.4227 78.7909 24.4677 79.3244 25.4164C79.858 26.365 80.5744 27.1984 81.4322 27.8683C81.1147 27.6493 80.7458 27.5165 80.3616 27.4827C80.2303 27.4846 80.1049 27.5376 80.0122 27.6305C79.9195 27.7234 79.8668 27.8489 79.8653 27.9802C79.9072 28.7386 80.9662 28.2772 81.3692 29.2465C81.7187 29.9164 83.133 29.1871 81.53 27.9452C82.2966 28.5807 83.1468 29.1079 84.0568 29.5121C84.0289 29.8616 84.0079 30.2111 83.9799 30.5478C83.945 31.0242 84.5252 31.1431 84.8269 30.8973C85.4161 30.3823 86.0943 29.9792 86.8283 29.7078C87.6787 29.4376 88.09 29.6193 88.3323 30.4767C88.9497 32.9278 86.1491 33.9751 84.1838 33.7258Z" fill="#1D1D1B"/>
<path d="M72.6797 30.6317C72.6797 30.4386 72.603 30.2534 72.4664 30.1168C72.3299 29.9803 72.1447 29.9036 71.9516 29.9036C71.7585 29.9036 71.5733 29.9803 71.4367 30.1168C71.3002 30.2534 71.2235 30.4386 71.2235 30.6317C71.2235 30.8248 71.3002 31.01 71.4367 31.1465C71.5733 31.2831 71.7585 31.3598 71.9516 31.3598C72.1447 31.3598 72.3299 31.2831 72.4664 31.1465C72.603 31.01 72.6797 30.8248 72.6797 30.6317ZM80.125 31.1291C79.9371 31.1366 79.7594 31.2166 79.6291 31.3522C79.4988 31.4878 79.426 31.6686 79.426 31.8566C79.426 32.0447 79.4988 32.2255 79.6291 32.3611C79.7594 32.4967 79.9371 32.5766 80.125 32.5841C80.3129 32.5766 80.4906 32.4967 80.6209 32.3611C80.7512 32.2255 80.824 32.0447 80.824 31.8566C80.824 31.6686 80.7512 31.4878 80.6209 31.3522C80.4906 31.2166 80.3129 31.1366 80.125 31.1291ZM72.6797 27.5107C72.8073 27.5045 72.9276 27.4495 73.0158 27.357C73.1039 27.2645 73.1531 27.1416 73.1531 27.0138C73.1531 26.8861 73.1039 26.7632 73.0158 26.6707C72.9276 26.5782 72.8073 26.5232 72.6797 26.517C72.287 26.537 71.9051 26.6526 71.5672 26.8538C71.2294 27.055 70.9458 27.3357 70.7412 27.6715C70.6765 27.7852 70.6586 27.9197 70.6912 28.0464C70.7238 28.1731 70.8044 28.2822 70.9159 28.3506C71.6044 28.7246 71.7244 27.5107 72.6797 27.5107ZM78.8028 34.9083C77.5399 36.7093 73.8598 36.4425 73.3787 34.4248C73.2319 33.8027 72.2801 34.0683 72.4269 34.6904C73.0723 37.4491 77.8207 38.0548 79.6567 35.4185C80.0271 34.8803 79.1662 34.3899 78.8028 34.9083ZM82.441 74.537C82.8883 74.0815 82.1893 73.3825 81.742 73.838C81.0568 74.5443 80.5448 75.3997 80.246 76.3372C79.9472 77.2747 79.8699 78.2687 80.0202 79.2412C80.0377 79.3037 80.0673 79.3621 80.1074 79.4131C80.1475 79.4642 80.1973 79.5068 80.2539 79.5386C80.3104 79.5704 80.3727 79.5908 80.4372 79.5985C80.5016 79.6062 80.5669 79.6012 80.6294 79.5837C80.6919 79.5662 80.7504 79.5365 80.8014 79.4964C80.8524 79.4563 80.8951 79.4066 80.9269 79.35C80.9587 79.2934 80.979 79.2311 80.9867 79.1667C80.9945 79.1022 80.9894 79.0369 80.9719 78.9744C80.8641 78.1718 80.9403 77.3551 81.1948 76.5863C81.4493 75.8175 81.8755 75.1167 82.441 74.537ZM83.1061 74.3693C83.0418 74.383 82.9813 74.4111 82.9293 74.4515C82.8772 74.4918 82.835 74.5433 82.8056 74.6023C81.8917 76.2725 81.6026 78.2136 81.9901 80.0776C82.0255 80.2038 82.1096 80.3108 82.2238 80.3751C82.3381 80.4393 82.4732 80.4555 82.5994 80.4201C82.7256 80.3847 82.8326 80.3007 82.8968 80.1864C82.9611 80.0722 82.9773 79.9371 82.9419 79.8108C82.6746 78.4878 82.8035 77.1153 83.3124 75.8651C83.7188 76.8666 83.9169 77.9404 83.8948 79.021C83.901 79.1477 83.9557 79.2672 84.0475 79.3547C84.1394 79.4422 84.2613 79.491 84.3882 79.491C84.5151 79.491 84.637 79.4422 84.7289 79.3547C84.8207 79.2672 84.8754 79.1477 84.8816 79.021C84.907 77.4529 84.5261 75.905 83.776 74.5277C83.7465 74.4691 83.7045 74.4177 83.653 74.3771C83.6015 74.3365 83.5418 74.3076 83.478 74.2925C83.4141 74.2774 83.3478 74.2765 83.2836 74.2897C83.2193 74.303 83.1588 74.3301 83.1061 74.3693ZM84.009 73.9359C84.9485 75.1262 85.4963 76.5783 85.5771 78.0925C85.5832 78.2201 85.6383 78.3405 85.7308 78.4286C85.8233 78.5167 85.9461 78.5659 86.0739 78.5659C86.2017 78.5659 86.3245 78.5167 86.417 78.4286C86.5095 78.3405 86.5646 78.2201 86.5708 78.0925C86.4755 76.3195 85.8269 74.621 84.7161 73.2358C84.3632 72.7942 83.529 73.3418 84.009 73.9359Z" fill="#1D1D1B"/>
<defs>
<linearGradient id="paint0_linear_9_166" x1="202.567" y1="88.1113" x2="213.474" y2="88.1113" gradientUnits="userSpaceOnUse">
<stop stop-color="#FF1F1F"/>
<stop offset="1" stop-color="#FB7722"/>
</linearGradient>
<linearGradient id="paint1_linear_9_166" x1="146.629" y1="80.9005" x2="212.008" y2="80.9005" gradientUnits="userSpaceOnUse">
<stop stop-color="#FF1F1F"/>
<stop offset="1" stop-color="#FB7722"/>
</linearGradient>
<linearGradient id="paint2_linear_9_166" x1="101.611" y1="68.1419" x2="46.8849" y2="68.1419" gradientUnits="userSpaceOnUse">
<stop stop-color="#FF1F1F"/>
<stop offset="1" stop-color="#FB7722"/>
</linearGradient>
</defs>
</svg>
